<mxfile host="drawio-plugin" modified="2024-06-18T15:40:06.988Z" agent="Mozilla/5.0 (X11; Linux x86_64) AppleWebKit/537.36 (KHTML, like Gecko) Chrome/122.0.0.0 Safari/537.36" etag="8fHn7-9yKV4RmTBTSk0L" version="22.1.22" type="embed" pages="9">
  <diagram id="tXSO5JOc0CJRgALvjL8g" name="Framework">
    <mxGraphModel dx="1550" dy="1128" grid="1" gridSize="10" guides="1" tooltips="1" connect="1" arrows="1" fold="1" page="1" pageScale="1" pageWidth="1600" pageHeight="1200" math="0" shadow="0">
      <root>
        <mxCell id="0" />
        <mxCell id="1" parent="0" />
        <mxCell id="ZUSWpy2vY83jdLOIrd2w-5" style="edgeStyle=orthogonalEdgeStyle;rounded=0;orthogonalLoop=1;jettySize=auto;html=1;entryX=0;entryY=0.5;entryDx=0;entryDy=0;entryPerimeter=0;endArrow=none;endFill=0;" parent="1" source="esr0n78GPnO2B9V3YZix-7" target="esr0n78GPnO2B9V3YZix-2" edge="1">
          <mxGeometry relative="1" as="geometry" />
        </mxCell>
        <mxCell id="ZUSWpy2vY83jdLOIrd2w-8" style="edgeStyle=orthogonalEdgeStyle;rounded=0;orthogonalLoop=1;jettySize=auto;html=1;entryX=0.004;entryY=0.5;entryDx=0;entryDy=0;entryPerimeter=0;" parent="1" source="esr0n78GPnO2B9V3YZix-9" target="esr0n78GPnO2B9V3YZix-2" edge="1">
          <mxGeometry relative="1" as="geometry" />
        </mxCell>
        <mxCell id="ZUSWpy2vY83jdLOIrd2w-9" style="edgeStyle=orthogonalEdgeStyle;rounded=0;orthogonalLoop=1;jettySize=auto;html=1;entryX=0.002;entryY=0.5;entryDx=0;entryDy=0;entryPerimeter=0;" parent="1" source="esr0n78GPnO2B9V3YZix-11" target="esr0n78GPnO2B9V3YZix-2" edge="1">
          <mxGeometry relative="1" as="geometry" />
        </mxCell>
        <mxCell id="esr0n78GPnO2B9V3YZix-2" value="" style="verticalLabelPosition=bottom;verticalAlign=top;html=1;shape=mxgraph.basic.rect;fillColor2=none;strokeWidth=2;size=20;indent=5;fillColor=#f8cecc;strokeColor=#b85450;movable=1;resizable=1;rotatable=1;deletable=1;editable=1;locked=0;connectable=1;" parent="1" vertex="1">
          <mxGeometry x="520" y="120" width="560" height="800" as="geometry" />
        </mxCell>
        <mxCell id="esr0n78GPnO2B9V3YZix-3" value="" style="verticalLabelPosition=bottom;verticalAlign=top;html=1;shape=mxgraph.basic.rect;fillColor2=none;strokeWidth=2;size=20;indent=5;fillColor=#dae8fc;strokeColor=#6c8ebf;" parent="1" vertex="1">
          <mxGeometry x="640" y="240" width="320" height="560" as="geometry" />
        </mxCell>
        <mxCell id="esr0n78GPnO2B9V3YZix-5" value="Microservice&lt;br&gt;(Delivery)" style="rounded=0;whiteSpace=wrap;html=1;" parent="1" vertex="1">
          <mxGeometry x="720" y="480" width="160" height="80" as="geometry" />
        </mxCell>
        <mxCell id="esr0n78GPnO2B9V3YZix-7" value="" style="strokeWidth=1;html=1;shape=mxgraph.flowchart.terminator;whiteSpace=wrap;fillColor=none;dashed=1;" parent="1" vertex="1">
          <mxGeometry x="160" y="480" width="160" height="80" as="geometry" />
        </mxCell>
        <mxCell id="esr0n78GPnO2B9V3YZix-9" value="" style="strokeWidth=1;html=1;shape=mxgraph.flowchart.terminator;whiteSpace=wrap;fillColor=none;dashed=1;" parent="1" vertex="1">
          <mxGeometry x="160" y="280" width="160" height="80" as="geometry" />
        </mxCell>
        <mxCell id="esr0n78GPnO2B9V3YZix-11" value="" style="strokeWidth=1;html=1;shape=mxgraph.flowchart.terminator;whiteSpace=wrap;fillColor=none;dashed=1;" parent="1" vertex="1">
          <mxGeometry x="160" y="680" width="160" height="80" as="geometry" />
        </mxCell>
        <mxCell id="esr0n78GPnO2B9V3YZix-12" value="Messaging" style="strokeWidth=1;html=1;shape=mxgraph.flowchart.terminator;whiteSpace=wrap;" parent="1" vertex="1">
          <mxGeometry x="1280" y="480" width="160" height="80" as="geometry" />
        </mxCell>
        <mxCell id="esr0n78GPnO2B9V3YZix-13" value="Email" style="strokeWidth=1;html=1;shape=mxgraph.flowchart.terminator;whiteSpace=wrap;" parent="1" vertex="1">
          <mxGeometry x="1280" y="280" width="160" height="80" as="geometry" />
        </mxCell>
        <mxCell id="esr0n78GPnO2B9V3YZix-14" value="Payment System" style="strokeWidth=1;html=1;shape=mxgraph.flowchart.terminator;whiteSpace=wrap;" parent="1" vertex="1">
          <mxGeometry x="1280" y="680" width="160" height="80" as="geometry" />
        </mxCell>
        <mxCell id="esr0n78GPnO2B9V3YZix-16" style="edgeStyle=orthogonalEdgeStyle;rounded=0;orthogonalLoop=1;jettySize=auto;html=1;entryX=0;entryY=0.5;entryDx=0;entryDy=0;entryPerimeter=0;" parent="1" source="kiGVQ6OIHKTvxn1DwDIM-5" target="esr0n78GPnO2B9V3YZix-13" edge="1">
          <mxGeometry relative="1" as="geometry">
            <mxPoint x="1110" y="320" as="sourcePoint" />
            <mxPoint x="1230" y="320" as="targetPoint" />
          </mxGeometry>
        </mxCell>
        <mxCell id="esr0n78GPnO2B9V3YZix-17" style="edgeStyle=orthogonalEdgeStyle;rounded=0;orthogonalLoop=1;jettySize=auto;html=1;entryX=0;entryY=0.5;entryDx=0;entryDy=0;entryPerimeter=0;exitX=1;exitY=0.5;exitDx=0;exitDy=0;exitPerimeter=0;" parent="1" source="kiGVQ6OIHKTvxn1DwDIM-7" target="esr0n78GPnO2B9V3YZix-14" edge="1">
          <mxGeometry relative="1" as="geometry">
            <mxPoint x="1160" y="720" as="sourcePoint" />
          </mxGeometry>
        </mxCell>
        <mxCell id="esr0n78GPnO2B9V3YZix-19" value="Databases" style="strokeWidth=2;html=1;shape=mxgraph.flowchart.database;whiteSpace=wrap;" parent="1" vertex="1">
          <mxGeometry x="720" y="1000" width="160" height="80" as="geometry" />
        </mxCell>
        <mxCell id="kiGVQ6OIHKTvxn1DwDIM-18" style="edgeStyle=orthogonalEdgeStyle;rounded=0;orthogonalLoop=1;jettySize=auto;html=1;entryX=0;entryY=0.5;entryDx=0;entryDy=0;endArrow=none;endFill=0;" parent="1" source="esr0n78GPnO2B9V3YZix-20" target="kiGVQ6OIHKTvxn1DwDIM-1" edge="1">
          <mxGeometry relative="1" as="geometry" />
        </mxCell>
        <mxCell id="esr0n78GPnO2B9V3YZix-20" value="" style="strokeWidth=1;html=1;shape=mxgraph.flowchart.start_2;whiteSpace=wrap;" parent="1" vertex="1">
          <mxGeometry x="930" y="490" width="60" height="60" as="geometry" />
        </mxCell>
        <mxCell id="esr0n78GPnO2B9V3YZix-21" value="" style="strokeWidth=1;html=1;shape=mxgraph.flowchart.start_2;whiteSpace=wrap;" parent="1" vertex="1">
          <mxGeometry x="930" y="690" width="60" height="60" as="geometry" />
        </mxCell>
        <mxCell id="kiGVQ6OIHKTvxn1DwDIM-17" style="edgeStyle=orthogonalEdgeStyle;rounded=0;orthogonalLoop=1;jettySize=auto;html=1;entryX=0;entryY=0.5;entryDx=0;entryDy=0;endArrow=none;endFill=0;" parent="1" source="esr0n78GPnO2B9V3YZix-22" target="kiGVQ6OIHKTvxn1DwDIM-5" edge="1">
          <mxGeometry relative="1" as="geometry" />
        </mxCell>
        <mxCell id="esr0n78GPnO2B9V3YZix-22" value="" style="strokeWidth=1;html=1;shape=mxgraph.flowchart.start_2;whiteSpace=wrap;" parent="1" vertex="1">
          <mxGeometry x="930" y="290" width="60" height="60" as="geometry" />
        </mxCell>
        <mxCell id="esr0n78GPnO2B9V3YZix-23" style="edgeStyle=orthogonalEdgeStyle;rounded=0;orthogonalLoop=1;jettySize=auto;html=1;entryX=0.5;entryY=0;entryDx=0;entryDy=0;entryPerimeter=0;" parent="1" source="kiGVQ6OIHKTvxn1DwDIM-11" target="esr0n78GPnO2B9V3YZix-19" edge="1">
          <mxGeometry relative="1" as="geometry" />
        </mxCell>
        <mxCell id="kiGVQ6OIHKTvxn1DwDIM-13" style="edgeStyle=orthogonalEdgeStyle;rounded=0;orthogonalLoop=1;jettySize=auto;html=1;endArrow=none;endFill=0;" parent="1" source="esr0n78GPnO2B9V3YZix-24" target="kiGVQ6OIHKTvxn1DwDIM-3" edge="1">
          <mxGeometry relative="1" as="geometry" />
        </mxCell>
        <mxCell id="esr0n78GPnO2B9V3YZix-24" value="" style="strokeWidth=1;html=1;shape=mxgraph.flowchart.start_2;whiteSpace=wrap;" parent="1" vertex="1">
          <mxGeometry x="610" y="688" width="60" height="60" as="geometry" />
        </mxCell>
        <mxCell id="kiGVQ6OIHKTvxn1DwDIM-16" style="edgeStyle=orthogonalEdgeStyle;rounded=0;orthogonalLoop=1;jettySize=auto;html=1;entryX=1;entryY=0.5;entryDx=0;entryDy=0;endArrow=none;endFill=0;" parent="1" source="esr0n78GPnO2B9V3YZix-25" target="kiGVQ6OIHKTvxn1DwDIM-4" edge="1">
          <mxGeometry relative="1" as="geometry" />
        </mxCell>
        <mxCell id="esr0n78GPnO2B9V3YZix-25" value="" style="strokeWidth=1;html=1;shape=mxgraph.flowchart.start_2;whiteSpace=wrap;" parent="1" vertex="1">
          <mxGeometry x="610" y="290" width="60" height="60" as="geometry" />
        </mxCell>
        <mxCell id="EIwAren4iYl0qASdvcOm-1" value="" style="sketch=0;pointerEvents=1;shadow=0;dashed=0;html=1;strokeColor=none;fillColor=#505050;labelPosition=center;verticalLabelPosition=bottom;verticalAlign=top;outlineConnect=0;align=center;shape=mxgraph.office.devices.workstation;" parent="1" vertex="1">
          <mxGeometry x="213.5" y="690" width="53" height="56" as="geometry" />
        </mxCell>
        <mxCell id="EIwAren4iYl0qASdvcOm-2" value="" style="sketch=0;pointerEvents=1;shadow=0;dashed=0;html=1;strokeColor=none;fillColor=#505050;labelPosition=center;verticalLabelPosition=bottom;verticalAlign=top;outlineConnect=0;align=center;shape=mxgraph.office.devices.tablet_ipad;" parent="1" vertex="1">
          <mxGeometry x="220.5" y="494" width="39" height="52" as="geometry" />
        </mxCell>
        <mxCell id="EIwAren4iYl0qASdvcOm-3" value="" style="sketch=0;pointerEvents=1;shadow=0;dashed=0;html=1;strokeColor=none;fillColor=#505050;labelPosition=center;verticalLabelPosition=bottom;verticalAlign=top;outlineConnect=0;align=center;shape=mxgraph.office.devices.cell_phone_iphone_standalone;" parent="1" vertex="1">
          <mxGeometry x="227.5" y="299" width="25" height="42" as="geometry" />
        </mxCell>
        <mxCell id="esr0n78GPnO2B9V3YZix-4" value="" style="strokeWidth=1;html=1;shape=mxgraph.flowchart.start_2;whiteSpace=wrap;" parent="1" vertex="1">
          <mxGeometry x="770" y="770" width="60" height="60" as="geometry" />
        </mxCell>
        <mxCell id="59AZTCvTJXWeD7AdC58u-1" value="Microservice&lt;br&gt;(Notification)" style="rounded=0;whiteSpace=wrap;html=1;" parent="1" vertex="1">
          <mxGeometry x="720" y="680" width="160" height="80" as="geometry" />
        </mxCell>
        <mxCell id="59AZTCvTJXWeD7AdC58u-2" value="Microservice&lt;br&gt;(Product)" style="rounded=0;whiteSpace=wrap;html=1;" parent="1" vertex="1">
          <mxGeometry x="720" y="280" width="160" height="80" as="geometry" />
        </mxCell>
        <mxCell id="kiGVQ6OIHKTvxn1DwDIM-1" value="Adapter" style="rounded=0;whiteSpace=wrap;html=1;" parent="1" vertex="1">
          <mxGeometry x="1040" y="480" width="80" height="80" as="geometry" />
        </mxCell>
        <mxCell id="kiGVQ6OIHKTvxn1DwDIM-3" value="UI" style="rounded=0;whiteSpace=wrap;html=1;" parent="1" vertex="1">
          <mxGeometry x="480" y="678" width="80" height="80" as="geometry" />
        </mxCell>
        <mxCell id="kiGVQ6OIHKTvxn1DwDIM-4" value="API" style="rounded=0;whiteSpace=wrap;html=1;" parent="1" vertex="1">
          <mxGeometry x="480" y="280" width="80" height="80" as="geometry" />
        </mxCell>
        <mxCell id="kiGVQ6OIHKTvxn1DwDIM-5" value="Adapter" style="rounded=0;whiteSpace=wrap;html=1;" parent="1" vertex="1">
          <mxGeometry x="1040" y="280" width="80" height="80" as="geometry" />
        </mxCell>
        <mxCell id="kiGVQ6OIHKTvxn1DwDIM-8" value="" style="edgeStyle=orthogonalEdgeStyle;rounded=0;orthogonalLoop=1;jettySize=auto;html=1;entryX=0;entryY=0.5;entryDx=0;entryDy=0;entryPerimeter=0;exitX=1;exitY=0.5;exitDx=0;exitDy=0;exitPerimeter=0;endArrow=none;endFill=0;" parent="1" source="esr0n78GPnO2B9V3YZix-21" target="kiGVQ6OIHKTvxn1DwDIM-7" edge="1">
          <mxGeometry relative="1" as="geometry">
            <mxPoint x="990" y="720" as="sourcePoint" />
            <mxPoint x="1280" y="720" as="targetPoint" />
          </mxGeometry>
        </mxCell>
        <mxCell id="kiGVQ6OIHKTvxn1DwDIM-7" value="Adapter" style="rounded=0;whiteSpace=wrap;html=1;" parent="1" vertex="1">
          <mxGeometry x="1040" y="680" width="80" height="80" as="geometry" />
        </mxCell>
        <mxCell id="kiGVQ6OIHKTvxn1DwDIM-9" value="Microservice&lt;br&gt;(Payment)" style="rounded=0;whiteSpace=wrap;html=1;" parent="1" vertex="1">
          <mxGeometry x="720" y="580" width="160" height="80" as="geometry" />
        </mxCell>
        <mxCell id="kiGVQ6OIHKTvxn1DwDIM-10" value="Microservice&lt;br&gt;(Order)" style="rounded=0;whiteSpace=wrap;html=1;" parent="1" vertex="1">
          <mxGeometry x="720" y="380" width="160" height="80" as="geometry" />
        </mxCell>
        <mxCell id="kiGVQ6OIHKTvxn1DwDIM-12" value="" style="edgeStyle=orthogonalEdgeStyle;rounded=0;orthogonalLoop=1;jettySize=auto;html=1;entryX=0.5;entryY=0;entryDx=0;entryDy=0;entryPerimeter=0;endArrow=none;endFill=0;" parent="1" source="esr0n78GPnO2B9V3YZix-4" target="kiGVQ6OIHKTvxn1DwDIM-11" edge="1">
          <mxGeometry relative="1" as="geometry">
            <mxPoint x="800" y="830" as="sourcePoint" />
            <mxPoint x="800" y="1000" as="targetPoint" />
          </mxGeometry>
        </mxCell>
        <mxCell id="kiGVQ6OIHKTvxn1DwDIM-11" value="Adapter" style="rounded=0;whiteSpace=wrap;html=1;" parent="1" vertex="1">
          <mxGeometry x="760" y="880" width="80" height="80" as="geometry" />
        </mxCell>
        <mxCell id="kiGVQ6OIHKTvxn1DwDIM-19" style="edgeStyle=orthogonalEdgeStyle;rounded=0;orthogonalLoop=1;jettySize=auto;html=1;entryX=0;entryY=0.5;entryDx=0;entryDy=0;entryPerimeter=0;" parent="1" source="kiGVQ6OIHKTvxn1DwDIM-1" target="esr0n78GPnO2B9V3YZix-12" edge="1">
          <mxGeometry relative="1" as="geometry" />
        </mxCell>
        <mxCell id="ZUSWpy2vY83jdLOIrd2w-1" value="Symfony Framework" style="text;html=1;align=center;verticalAlign=middle;resizable=0;points=[];autosize=1;strokeColor=none;fillColor=none;fontSize=18;" parent="1" vertex="1">
          <mxGeometry x="705" y="155" width="190" height="40" as="geometry" />
        </mxCell>
        <mxCell id="dzGunZxYbGzM6G_q4qTC-1" value="" style="sketch=0;pointerEvents=1;shadow=0;dashed=0;html=1;strokeColor=none;fillColor=#505050;labelPosition=center;verticalLabelPosition=bottom;outlineConnect=0;verticalAlign=top;align=center;shape=mxgraph.office.clouds.private_cloud;" parent="1" vertex="1">
          <mxGeometry x="370" y="491" width="94" height="55" as="geometry" />
        </mxCell>
      </root>
    </mxGraphModel>
  </diagram>
  <diagram name="Architecture" id="hpWTeD0RpSRiBoWzgLlp">
    <mxGraphModel dx="1550" dy="1128" grid="1" gridSize="10" guides="1" tooltips="1" connect="1" arrows="1" fold="1" page="1" pageScale="1" pageWidth="1600" pageHeight="1200" math="0" shadow="0">
      <root>
        <mxCell id="wc2W1vhaEtL9s9SfbJkc-0" />
        <mxCell id="wc2W1vhaEtL9s9SfbJkc-1" parent="wc2W1vhaEtL9s9SfbJkc-0" />
        <mxCell id="wc2W1vhaEtL9s9SfbJkc-2" style="edgeStyle=orthogonalEdgeStyle;rounded=0;orthogonalLoop=1;jettySize=auto;html=1;entryX=0;entryY=0.5;entryDx=0;entryDy=0;entryPerimeter=0;endArrow=none;endFill=0;" parent="wc2W1vhaEtL9s9SfbJkc-1" source="wc2W1vhaEtL9s9SfbJkc-8" target="wc2W1vhaEtL9s9SfbJkc-5" edge="1">
          <mxGeometry relative="1" as="geometry" />
        </mxCell>
        <mxCell id="wc2W1vhaEtL9s9SfbJkc-3" style="edgeStyle=orthogonalEdgeStyle;rounded=0;orthogonalLoop=1;jettySize=auto;html=1;entryX=0.004;entryY=0.5;entryDx=0;entryDy=0;entryPerimeter=0;" parent="wc2W1vhaEtL9s9SfbJkc-1" source="wc2W1vhaEtL9s9SfbJkc-9" target="wc2W1vhaEtL9s9SfbJkc-5" edge="1">
          <mxGeometry relative="1" as="geometry" />
        </mxCell>
        <mxCell id="wc2W1vhaEtL9s9SfbJkc-5" value="" style="verticalLabelPosition=bottom;verticalAlign=top;html=1;shape=mxgraph.basic.rect;fillColor2=none;strokeWidth=2;size=20;indent=5;fillColor=#f8cecc;strokeColor=#b85450;movable=1;resizable=1;rotatable=1;deletable=1;editable=1;locked=0;connectable=1;" parent="wc2W1vhaEtL9s9SfbJkc-1" vertex="1">
          <mxGeometry x="520" y="120" width="560" height="800" as="geometry" />
        </mxCell>
        <mxCell id="wc2W1vhaEtL9s9SfbJkc-6" value="" style="verticalLabelPosition=bottom;verticalAlign=top;html=1;shape=mxgraph.basic.rect;fillColor2=none;strokeWidth=2;size=20;indent=5;fillColor=#dae8fc;strokeColor=#6c8ebf;" parent="wc2W1vhaEtL9s9SfbJkc-1" vertex="1">
          <mxGeometry x="640" y="240" width="320" height="560" as="geometry" />
        </mxCell>
        <mxCell id="wc2W1vhaEtL9s9SfbJkc-7" value="Service" style="rounded=0;whiteSpace=wrap;html=1;" parent="wc2W1vhaEtL9s9SfbJkc-1" vertex="1">
          <mxGeometry x="720" y="480" width="160" height="80" as="geometry" />
        </mxCell>
        <mxCell id="wc2W1vhaEtL9s9SfbJkc-8" value="" style="strokeWidth=1;html=1;shape=mxgraph.flowchart.terminator;whiteSpace=wrap;fillColor=none;dashed=1;" parent="wc2W1vhaEtL9s9SfbJkc-1" vertex="1">
          <mxGeometry x="160" y="480" width="160" height="80" as="geometry" />
        </mxCell>
        <mxCell id="wc2W1vhaEtL9s9SfbJkc-9" value="" style="strokeWidth=1;html=1;shape=mxgraph.flowchart.terminator;whiteSpace=wrap;fillColor=none;dashed=1;" parent="wc2W1vhaEtL9s9SfbJkc-1" vertex="1">
          <mxGeometry x="160" y="280" width="160" height="80" as="geometry" />
        </mxCell>
        <mxCell id="wc2W1vhaEtL9s9SfbJkc-10" value="" style="strokeWidth=1;html=1;shape=mxgraph.flowchart.terminator;whiteSpace=wrap;fillColor=none;dashed=1;" parent="wc2W1vhaEtL9s9SfbJkc-1" vertex="1">
          <mxGeometry x="160" y="680" width="160" height="80" as="geometry" />
        </mxCell>
        <mxCell id="wc2W1vhaEtL9s9SfbJkc-14" style="edgeStyle=orthogonalEdgeStyle;rounded=0;orthogonalLoop=1;jettySize=auto;html=1;entryX=0.5;entryY=0;entryDx=0;entryDy=0;" parent="wc2W1vhaEtL9s9SfbJkc-1" source="wc2W1vhaEtL9s9SfbJkc-36" target="7HpqtTurrEbOnobln2LP-0" edge="1">
          <mxGeometry relative="1" as="geometry">
            <mxPoint x="1110" y="320" as="sourcePoint" />
            <mxPoint x="1360" y="470" as="targetPoint" />
          </mxGeometry>
        </mxCell>
        <mxCell id="wc2W1vhaEtL9s9SfbJkc-15" style="edgeStyle=orthogonalEdgeStyle;rounded=0;orthogonalLoop=1;jettySize=auto;html=1;entryX=0.5;entryY=1;entryDx=0;entryDy=0;exitX=1;exitY=0.5;exitDx=0;exitDy=0;exitPerimeter=0;" parent="wc2W1vhaEtL9s9SfbJkc-1" source="wc2W1vhaEtL9s9SfbJkc-38" target="7HpqtTurrEbOnobln2LP-0" edge="1">
          <mxGeometry relative="1" as="geometry">
            <mxPoint x="1160" y="720" as="sourcePoint" />
            <mxPoint x="1280" y="720" as="targetPoint" />
          </mxGeometry>
        </mxCell>
        <mxCell id="wc2W1vhaEtL9s9SfbJkc-16" value="Databases" style="strokeWidth=2;html=1;shape=mxgraph.flowchart.database;whiteSpace=wrap;" parent="wc2W1vhaEtL9s9SfbJkc-1" vertex="1">
          <mxGeometry x="720" y="1000" width="160" height="80" as="geometry" />
        </mxCell>
        <mxCell id="wc2W1vhaEtL9s9SfbJkc-19" value="Interface" style="strokeWidth=1;html=1;shape=mxgraph.flowchart.start_2;whiteSpace=wrap;" parent="wc2W1vhaEtL9s9SfbJkc-1" vertex="1">
          <mxGeometry x="930" y="690" width="60" height="60" as="geometry" />
        </mxCell>
        <mxCell id="wc2W1vhaEtL9s9SfbJkc-20" style="edgeStyle=orthogonalEdgeStyle;rounded=0;orthogonalLoop=1;jettySize=auto;html=1;entryX=0;entryY=0.5;entryDx=0;entryDy=0;endArrow=none;endFill=0;exitX=0.5;exitY=0;exitDx=0;exitDy=0;" parent="wc2W1vhaEtL9s9SfbJkc-1" source="wc2W1vhaEtL9s9SfbJkc-7" target="wc2W1vhaEtL9s9SfbJkc-36" edge="1">
          <mxGeometry relative="1" as="geometry">
            <mxPoint x="990" y="320" as="sourcePoint" />
          </mxGeometry>
        </mxCell>
        <mxCell id="wc2W1vhaEtL9s9SfbJkc-22" style="edgeStyle=orthogonalEdgeStyle;rounded=0;orthogonalLoop=1;jettySize=auto;html=1;entryX=0.5;entryY=0;entryDx=0;entryDy=0;entryPerimeter=0;" parent="wc2W1vhaEtL9s9SfbJkc-1" source="wc2W1vhaEtL9s9SfbJkc-42" target="wc2W1vhaEtL9s9SfbJkc-16" edge="1">
          <mxGeometry relative="1" as="geometry" />
        </mxCell>
        <mxCell id="wc2W1vhaEtL9s9SfbJkc-27" value="" style="sketch=0;pointerEvents=1;shadow=0;dashed=0;html=1;strokeColor=none;fillColor=#505050;labelPosition=center;verticalLabelPosition=bottom;verticalAlign=top;outlineConnect=0;align=center;shape=mxgraph.office.devices.workstation;" parent="wc2W1vhaEtL9s9SfbJkc-1" vertex="1">
          <mxGeometry x="213.5" y="690" width="53" height="56" as="geometry" />
        </mxCell>
        <mxCell id="wc2W1vhaEtL9s9SfbJkc-28" value="" style="sketch=0;pointerEvents=1;shadow=0;dashed=0;html=1;strokeColor=none;fillColor=#505050;labelPosition=center;verticalLabelPosition=bottom;verticalAlign=top;outlineConnect=0;align=center;shape=mxgraph.office.devices.tablet_ipad;" parent="wc2W1vhaEtL9s9SfbJkc-1" vertex="1">
          <mxGeometry x="220.5" y="494" width="39" height="52" as="geometry" />
        </mxCell>
        <mxCell id="wc2W1vhaEtL9s9SfbJkc-29" value="" style="sketch=0;pointerEvents=1;shadow=0;dashed=0;html=1;strokeColor=none;fillColor=#505050;labelPosition=center;verticalLabelPosition=bottom;verticalAlign=top;outlineConnect=0;align=center;shape=mxgraph.office.devices.cell_phone_iphone_standalone;" parent="wc2W1vhaEtL9s9SfbJkc-1" vertex="1">
          <mxGeometry x="227.5" y="299" width="25" height="42" as="geometry" />
        </mxCell>
        <mxCell id="wc2W1vhaEtL9s9SfbJkc-30" value="Interface" style="strokeWidth=1;html=1;shape=mxgraph.flowchart.start_2;whiteSpace=wrap;" parent="wc2W1vhaEtL9s9SfbJkc-1" vertex="1">
          <mxGeometry x="770" y="770" width="60" height="60" as="geometry" />
        </mxCell>
        <mxCell id="wc2W1vhaEtL9s9SfbJkc-36" value="Message consumer" style="rounded=0;whiteSpace=wrap;html=1;" parent="wc2W1vhaEtL9s9SfbJkc-1" vertex="1">
          <mxGeometry x="1040" y="280" width="80" height="80" as="geometry" />
        </mxCell>
        <mxCell id="wc2W1vhaEtL9s9SfbJkc-37" value="" style="edgeStyle=orthogonalEdgeStyle;rounded=0;orthogonalLoop=1;jettySize=auto;html=1;entryX=0;entryY=0.5;entryDx=0;entryDy=0;entryPerimeter=0;exitX=1;exitY=0.5;exitDx=0;exitDy=0;exitPerimeter=0;endArrow=none;endFill=0;" parent="wc2W1vhaEtL9s9SfbJkc-1" source="wc2W1vhaEtL9s9SfbJkc-19" target="wc2W1vhaEtL9s9SfbJkc-38" edge="1">
          <mxGeometry relative="1" as="geometry">
            <mxPoint x="990" y="720" as="sourcePoint" />
            <mxPoint x="1280" y="720" as="targetPoint" />
          </mxGeometry>
        </mxCell>
        <mxCell id="wc2W1vhaEtL9s9SfbJkc-38" value="Message producer" style="rounded=0;whiteSpace=wrap;html=1;" parent="wc2W1vhaEtL9s9SfbJkc-1" vertex="1">
          <mxGeometry x="1040" y="680" width="80" height="80" as="geometry" />
        </mxCell>
        <mxCell id="wc2W1vhaEtL9s9SfbJkc-41" value="" style="edgeStyle=orthogonalEdgeStyle;rounded=0;orthogonalLoop=1;jettySize=auto;html=1;entryX=0.5;entryY=0;entryDx=0;entryDy=0;entryPerimeter=0;endArrow=none;endFill=0;" parent="wc2W1vhaEtL9s9SfbJkc-1" source="wc2W1vhaEtL9s9SfbJkc-30" target="wc2W1vhaEtL9s9SfbJkc-42" edge="1">
          <mxGeometry relative="1" as="geometry">
            <mxPoint x="800" y="830" as="sourcePoint" />
            <mxPoint x="800" y="1000" as="targetPoint" />
          </mxGeometry>
        </mxCell>
        <mxCell id="wc2W1vhaEtL9s9SfbJkc-42" value="" style="rounded=0;whiteSpace=wrap;html=1;" parent="wc2W1vhaEtL9s9SfbJkc-1" vertex="1">
          <mxGeometry x="760" y="880" width="80" height="80" as="geometry" />
        </mxCell>
        <mxCell id="wc2W1vhaEtL9s9SfbJkc-44" value="Symfony Framework" style="text;html=1;align=center;verticalAlign=middle;resizable=0;points=[];autosize=1;strokeColor=none;fillColor=none;fontSize=18;" parent="wc2W1vhaEtL9s9SfbJkc-1" vertex="1">
          <mxGeometry x="705" y="155" width="190" height="40" as="geometry" />
        </mxCell>
        <mxCell id="7HpqtTurrEbOnobln2LP-0" value="Message broker" style="shape=process;whiteSpace=wrap;html=1;backgroundOutline=1;" parent="wc2W1vhaEtL9s9SfbJkc-1" vertex="1">
          <mxGeometry x="1280" y="480" width="160" height="80" as="geometry" />
        </mxCell>
        <mxCell id="7HpqtTurrEbOnobln2LP-7" value="" style="edgeStyle=orthogonalEdgeStyle;rounded=0;orthogonalLoop=1;jettySize=auto;html=1;entryX=0.005;entryY=0.5;entryDx=0;entryDy=0;entryPerimeter=0;" parent="wc2W1vhaEtL9s9SfbJkc-1" source="wc2W1vhaEtL9s9SfbJkc-10" target="wc2W1vhaEtL9s9SfbJkc-5" edge="1">
          <mxGeometry relative="1" as="geometry">
            <mxPoint x="320" y="720" as="sourcePoint" />
            <mxPoint x="500" y="550" as="targetPoint" />
          </mxGeometry>
        </mxCell>
        <mxCell id="7HpqtTurrEbOnobln2LP-6" value="" style="sketch=0;pointerEvents=1;shadow=0;dashed=0;html=1;strokeColor=none;fillColor=#505050;labelPosition=center;verticalLabelPosition=bottom;outlineConnect=0;verticalAlign=top;align=center;shape=mxgraph.office.clouds.private_cloud;" parent="wc2W1vhaEtL9s9SfbJkc-1" vertex="1">
          <mxGeometry x="370" y="491" width="94" height="55" as="geometry" />
        </mxCell>
        <mxCell id="Sk2VIWM0iuveo7Emd88_-2" style="edgeStyle=orthogonalEdgeStyle;rounded=0;orthogonalLoop=1;jettySize=auto;html=1;" parent="wc2W1vhaEtL9s9SfbJkc-1" source="wc2W1vhaEtL9s9SfbJkc-35" target="wc2W1vhaEtL9s9SfbJkc-7" edge="1">
          <mxGeometry relative="1" as="geometry" />
        </mxCell>
        <mxCell id="wc2W1vhaEtL9s9SfbJkc-35" value="Controller" style="rounded=0;whiteSpace=wrap;html=1;" parent="wc2W1vhaEtL9s9SfbJkc-1" vertex="1">
          <mxGeometry x="480" y="480" width="80" height="80" as="geometry" />
        </mxCell>
      </root>
    </mxGraphModel>
  </diagram>
  <diagram id="Q7WVCQHTH9_cfOO6Up5b" name="Service">
    <mxGraphModel dx="1550" dy="1128" grid="1" gridSize="10" guides="1" tooltips="1" connect="1" arrows="1" fold="1" page="1" pageScale="1" pageWidth="1600" pageHeight="1200" math="0" shadow="0">
      <root>
        <mxCell id="0" />
        <mxCell id="1" parent="0" />
        <mxCell id="KCujdC4uxRJTg82iDWfi-27" value="" style="verticalLabelPosition=bottom;verticalAlign=top;html=1;shape=mxgraph.basic.rect;fillColor2=none;strokeWidth=2;size=20;indent=5;fillColor=#dae8fc;strokeColor=#6c8ebf;" parent="1" vertex="1">
          <mxGeometry x="1240" y="240" width="240" height="560" as="geometry" />
        </mxCell>
        <mxCell id="KCujdC4uxRJTg82iDWfi-26" value="" style="verticalLabelPosition=bottom;verticalAlign=top;html=1;shape=mxgraph.basic.rect;fillColor2=none;strokeWidth=2;size=20;indent=5;fillColor=#f5f5f5;fontColor=#333333;strokeColor=#666666;dashed=1;" parent="1" vertex="1">
          <mxGeometry x="680" y="240" width="240" height="560" as="geometry" />
        </mxCell>
        <mxCell id="KCujdC4uxRJTg82iDWfi-2" value="" style="verticalLabelPosition=bottom;verticalAlign=top;html=1;shape=mxgraph.basic.rect;fillColor2=none;strokeWidth=2;size=20;indent=5;fillColor=#d5e8d4;strokeColor=#82b366;" parent="1" vertex="1">
          <mxGeometry x="120" y="240" width="240" height="560" as="geometry" />
        </mxCell>
        <mxCell id="KCujdC4uxRJTg82iDWfi-23" value="" style="rounded=0;whiteSpace=wrap;html=1;" parent="1" vertex="1">
          <mxGeometry x="720" y="280" width="160" height="200" as="geometry" />
        </mxCell>
        <mxCell id="KCujdC4uxRJTg82iDWfi-25" value="Client" style="text;html=1;align=center;verticalAlign=middle;resizable=0;points=[];autosize=1;strokeColor=none;fillColor=none;fontSize=18;" parent="1" vertex="1">
          <mxGeometry x="205" y="500" width="70" height="40" as="geometry" />
        </mxCell>
        <mxCell id="KCujdC4uxRJTg82iDWfi-28" value="Service" style="text;html=1;align=center;verticalAlign=middle;resizable=0;points=[];autosize=1;strokeColor=none;fillColor=none;fontSize=18;" parent="1" vertex="1">
          <mxGeometry x="1320" y="500" width="80" height="40" as="geometry" />
        </mxCell>
        <mxCell id="KCujdC4uxRJTg82iDWfi-30" value="Event Triger" style="rounded=0;whiteSpace=wrap;html=1;" parent="1" vertex="1">
          <mxGeometry x="720" y="560" width="160" height="200" as="geometry" />
        </mxCell>
        <mxCell id="KCujdC4uxRJTg82iDWfi-32" style="edgeStyle=orthogonalEdgeStyle;rounded=0;orthogonalLoop=1;jettySize=auto;html=1;entryX=1.017;entryY=0.75;entryDx=0;entryDy=0;entryPerimeter=0;fillColor=#dae8fc;strokeColor=#6c8ebf;strokeWidth=2;" parent="1" source="KCujdC4uxRJTg82iDWfi-30" target="KCujdC4uxRJTg82iDWfi-2" edge="1">
          <mxGeometry relative="1" as="geometry" />
        </mxCell>
        <mxCell id="KCujdC4uxRJTg82iDWfi-33" style="edgeStyle=orthogonalEdgeStyle;rounded=0;orthogonalLoop=1;jettySize=auto;html=1;entryX=1.004;entryY=0.25;entryDx=0;entryDy=0;entryPerimeter=0;startArrow=classic;startFill=1;endArrow=none;endFill=0;fillColor=#ffe6cc;strokeColor=#d79b00;strokeWidth=2;" parent="1" source="KCujdC4uxRJTg82iDWfi-23" target="KCujdC4uxRJTg82iDWfi-2" edge="1">
          <mxGeometry relative="1" as="geometry" />
        </mxCell>
        <mxCell id="KCujdC4uxRJTg82iDWfi-34" value="API" style="text;html=1;align=center;verticalAlign=middle;resizable=0;points=[];autosize=1;strokeColor=none;fillColor=none;fontSize=18;" parent="1" vertex="1">
          <mxGeometry x="775" y="200" width="50" height="40" as="geometry" />
        </mxCell>
        <mxCell id="KCujdC4uxRJTg82iDWfi-35" style="edgeStyle=orthogonalEdgeStyle;rounded=0;orthogonalLoop=1;jettySize=auto;html=1;entryX=-0.017;entryY=0.75;entryDx=0;entryDy=0;entryPerimeter=0;startArrow=classic;startFill=1;endArrow=none;endFill=0;fillColor=#dae8fc;strokeColor=#6c8ebf;strokeWidth=2;" parent="1" source="KCujdC4uxRJTg82iDWfi-30" target="KCujdC4uxRJTg82iDWfi-27" edge="1">
          <mxGeometry relative="1" as="geometry" />
        </mxCell>
        <mxCell id="KCujdC4uxRJTg82iDWfi-36" style="edgeStyle=orthogonalEdgeStyle;rounded=0;orthogonalLoop=1;jettySize=auto;html=1;entryX=-0.012;entryY=0.25;entryDx=0;entryDy=0;entryPerimeter=0;fillColor=#ffe6cc;strokeColor=#d79b00;strokeWidth=2;" parent="1" source="KCujdC4uxRJTg82iDWfi-23" target="KCujdC4uxRJTg82iDWfi-27" edge="1">
          <mxGeometry relative="1" as="geometry" />
        </mxCell>
        <mxCell id="RSVEFdInEMGi8n5zyzXj-1" value="&lt;font style=&quot;font-size: 16px;&quot;&gt;Command :&lt;/font&gt;&lt;div&gt;&lt;br&gt;&lt;/div&gt;&lt;div&gt;createdOrder()&lt;/div&gt;&lt;div&gt;...&lt;/div&gt;" style="text;html=1;align=left;verticalAlign=middle;resizable=0;points=[];autosize=1;strokeColor=none;fillColor=none;" parent="1" vertex="1">
          <mxGeometry x="740" y="295" width="110" height="80" as="geometry" />
        </mxCell>
        <mxCell id="RSVEFdInEMGi8n5zyzXj-2" value="&lt;font style=&quot;font-size: 16px;&quot;&gt;Query :&lt;/font&gt;&lt;div&gt;&lt;br&gt;&lt;/div&gt;&lt;div&gt;findOrderbyId()&lt;/div&gt;&lt;div&gt;...&lt;/div&gt;" style="text;html=1;align=left;verticalAlign=middle;resizable=0;points=[];autosize=1;strokeColor=none;fillColor=none;" parent="1" vertex="1">
          <mxGeometry x="740" y="385" width="100" height="80" as="geometry" />
        </mxCell>
        <mxCell id="RSVEFdInEMGi8n5zyzXj-3" value="Event Subscriber" style="text;html=1;align=center;verticalAlign=middle;resizable=0;points=[];autosize=1;strokeColor=none;fillColor=none;" parent="1" vertex="1">
          <mxGeometry x="460" y="620" width="110" height="30" as="geometry" />
        </mxCell>
        <mxCell id="RSVEFdInEMGi8n5zyzXj-4" value="Request" style="text;html=1;align=center;verticalAlign=middle;resizable=0;points=[];autosize=1;strokeColor=none;fillColor=none;" parent="1" vertex="1">
          <mxGeometry x="480" y="340" width="70" height="30" as="geometry" />
        </mxCell>
        <mxCell id="RSVEFdInEMGi8n5zyzXj-5" value="CreatedOrder&lt;div&gt;CancledOrder&lt;/div&gt;" style="text;html=1;align=center;verticalAlign=middle;resizable=0;points=[];autosize=1;strokeColor=none;fillColor=none;" parent="1" vertex="1">
          <mxGeometry x="465" y="680" width="100" height="40" as="geometry" />
        </mxCell>
        <mxCell id="be26zN_jiB6j2rVhgF4c-1" value="Command : Create, Update, Delete" style="text;html=1;align=left;verticalAlign=middle;resizable=0;points=[];autosize=1;strokeColor=none;fillColor=none;fontSize=12;" parent="1" vertex="1">
          <mxGeometry x="980" y="340" width="210" height="30" as="geometry" />
        </mxCell>
        <mxCell id="be26zN_jiB6j2rVhgF4c-2" value="Query : Read" style="text;html=1;align=left;verticalAlign=middle;resizable=0;points=[];autosize=1;strokeColor=none;fillColor=none;fontSize=12;" parent="1" vertex="1">
          <mxGeometry x="980" y="390" width="90" height="30" as="geometry" />
        </mxCell>
        <mxCell id="be26zN_jiB6j2rVhgF4c-3" value="Event" style="text;html=1;align=left;verticalAlign=middle;resizable=0;points=[];autosize=1;strokeColor=none;fillColor=none;fontSize=12;" parent="1" vertex="1">
          <mxGeometry x="980" y="620" width="50" height="30" as="geometry" />
        </mxCell>
      </root>
    </mxGraphModel>
  </diagram>
  <diagram name="Sync" id="eFKGynUSQBkQeg08rwGl">
    <mxGraphModel dx="1566" dy="1084" grid="1" gridSize="10" guides="1" tooltips="1" connect="1" arrows="1" fold="1" page="1" pageScale="1" pageWidth="1600" pageHeight="1200" math="0" shadow="0">
      <root>
        <mxCell id="RbuGkNwN-ZAC3-5Zt8KE-0" />
        <mxCell id="RbuGkNwN-ZAC3-5Zt8KE-1" parent="RbuGkNwN-ZAC3-5Zt8KE-0" />
        <mxCell id="_6x1qVNwykDUhQgYawh--1" value="" style="verticalLabelPosition=bottom;verticalAlign=top;html=1;shape=mxgraph.basic.rect;fillColor2=none;strokeWidth=2;size=20;indent=5;fillColor=#f8cecc;strokeColor=#b85450;movable=1;resizable=1;rotatable=1;deletable=1;editable=1;locked=0;connectable=1;" parent="RbuGkNwN-ZAC3-5Zt8KE-1" vertex="1">
          <mxGeometry x="1080" y="120" width="480" height="800" as="geometry" />
        </mxCell>
        <mxCell id="_6x1qVNwykDUhQgYawh--0" value="" style="verticalLabelPosition=bottom;verticalAlign=top;html=1;shape=mxgraph.basic.rect;fillColor2=none;strokeWidth=2;size=20;indent=5;fillColor=#f8cecc;strokeColor=#b85450;movable=1;resizable=1;rotatable=1;deletable=1;editable=1;locked=0;connectable=1;" parent="RbuGkNwN-ZAC3-5Zt8KE-1" vertex="1">
          <mxGeometry x="40" y="120" width="480" height="800" as="geometry" />
        </mxCell>
        <mxCell id="RbuGkNwN-ZAC3-5Zt8KE-2" value="" style="verticalLabelPosition=bottom;verticalAlign=top;html=1;shape=mxgraph.basic.rect;fillColor2=none;strokeWidth=2;size=20;indent=5;fillColor=#dae8fc;strokeColor=#6c8ebf;" parent="RbuGkNwN-ZAC3-5Zt8KE-1" vertex="1">
          <mxGeometry x="1240" y="240" width="240" height="560" as="geometry" />
        </mxCell>
        <mxCell id="RbuGkNwN-ZAC3-5Zt8KE-4" value="" style="verticalLabelPosition=bottom;verticalAlign=top;html=1;shape=mxgraph.basic.rect;fillColor2=none;strokeWidth=2;size=20;indent=5;fillColor=#dae8fc;strokeColor=#6c8ebf;" parent="RbuGkNwN-ZAC3-5Zt8KE-1" vertex="1">
          <mxGeometry x="120" y="240" width="240" height="560" as="geometry" />
        </mxCell>
        <mxCell id="RbuGkNwN-ZAC3-5Zt8KE-5" value="RPI&lt;br&gt;(Sync)" style="rounded=0;whiteSpace=wrap;html=1;" parent="RbuGkNwN-ZAC3-5Zt8KE-1" vertex="1">
          <mxGeometry x="440" y="320" width="160" height="400" as="geometry" />
        </mxCell>
        <mxCell id="RbuGkNwN-ZAC3-5Zt8KE-11" value="&lt;font style=&quot;font-size: 14px;&quot;&gt;Request&lt;/font&gt;" style="text;html=1;align=center;verticalAlign=middle;resizable=0;points=[];autosize=1;strokeColor=none;fillColor=none;fontSize=18;" parent="RbuGkNwN-ZAC3-5Zt8KE-1" vertex="1">
          <mxGeometry x="760" y="340" width="80" height="40" as="geometry" />
        </mxCell>
        <mxCell id="YH9uastGxIykn5Ay0m4d-3" style="edgeStyle=orthogonalEdgeStyle;rounded=0;orthogonalLoop=1;jettySize=auto;html=1;endArrow=none;endFill=0;" parent="RbuGkNwN-ZAC3-5Zt8KE-1" source="YH9uastGxIykn5Ay0m4d-0" target="RbuGkNwN-ZAC3-5Zt8KE-5" edge="1">
          <mxGeometry relative="1" as="geometry" />
        </mxCell>
        <mxCell id="YH9uastGxIykn5Ay0m4d-0" value="" style="strokeWidth=1;html=1;shape=mxgraph.flowchart.start_2;whiteSpace=wrap;" parent="RbuGkNwN-ZAC3-5Zt8KE-1" vertex="1">
          <mxGeometry x="330" y="490" width="60" height="60" as="geometry" />
        </mxCell>
        <mxCell id="YH9uastGxIykn5Ay0m4d-1" value="" style="strokeWidth=1;html=1;shape=mxgraph.flowchart.start_2;whiteSpace=wrap;" parent="RbuGkNwN-ZAC3-5Zt8KE-1" vertex="1">
          <mxGeometry x="1210" y="480" width="60" height="60" as="geometry" />
        </mxCell>
        <mxCell id="YH9uastGxIykn5Ay0m4d-2" value="RPI&lt;br&gt;(Sync)" style="rounded=0;whiteSpace=wrap;html=1;" parent="RbuGkNwN-ZAC3-5Zt8KE-1" vertex="1">
          <mxGeometry x="1000" y="320" width="160" height="400" as="geometry" />
        </mxCell>
        <mxCell id="YH9uastGxIykn5Ay0m4d-4" style="edgeStyle=orthogonalEdgeStyle;rounded=0;orthogonalLoop=1;jettySize=auto;html=1;entryX=0.994;entryY=0.475;entryDx=0;entryDy=0;entryPerimeter=0;endArrow=none;endFill=0;" parent="RbuGkNwN-ZAC3-5Zt8KE-1" source="YH9uastGxIykn5Ay0m4d-1" target="YH9uastGxIykn5Ay0m4d-2" edge="1">
          <mxGeometry relative="1" as="geometry" />
        </mxCell>
        <mxCell id="YH9uastGxIykn5Ay0m4d-8" style="edgeStyle=orthogonalEdgeStyle;rounded=0;orthogonalLoop=1;jettySize=auto;html=1;entryX=-0.006;entryY=0.198;entryDx=0;entryDy=0;entryPerimeter=0;exitX=1.006;exitY=0.198;exitDx=0;exitDy=0;exitPerimeter=0;fillColor=#ffe6cc;strokeColor=#d79b00;strokeWidth=2;" parent="RbuGkNwN-ZAC3-5Zt8KE-1" source="RbuGkNwN-ZAC3-5Zt8KE-5" target="YH9uastGxIykn5Ay0m4d-2" edge="1">
          <mxGeometry relative="1" as="geometry">
            <mxPoint x="710" y="420" as="sourcePoint" />
            <mxPoint x="919" y="399" as="targetPoint" />
          </mxGeometry>
        </mxCell>
        <mxCell id="tm5OCC_oO86Dw3kRRHSy-0" style="edgeStyle=orthogonalEdgeStyle;rounded=0;orthogonalLoop=1;jettySize=auto;html=1;entryX=1.025;entryY=0.798;entryDx=0;entryDy=0;entryPerimeter=0;exitX=-0.006;exitY=0.798;exitDx=0;exitDy=0;exitPerimeter=0;fillColor=#dae8fc;strokeColor=#6c8ebf;strokeWidth=2;" parent="RbuGkNwN-ZAC3-5Zt8KE-1" source="YH9uastGxIykn5Ay0m4d-2" target="RbuGkNwN-ZAC3-5Zt8KE-5" edge="1">
          <mxGeometry relative="1" as="geometry" />
        </mxCell>
        <mxCell id="tm5OCC_oO86Dw3kRRHSy-1" value="&lt;font style=&quot;font-size: 14px;&quot;&gt;Response&lt;/font&gt;" style="text;html=1;align=center;verticalAlign=middle;resizable=0;points=[];autosize=1;strokeColor=none;fillColor=none;fontSize=18;" parent="RbuGkNwN-ZAC3-5Zt8KE-1" vertex="1">
          <mxGeometry x="755" y="660" width="90" height="40" as="geometry" />
        </mxCell>
        <mxCell id="22byeemKH-8XLrDROv49-0" value="Service" style="text;html=1;align=center;verticalAlign=middle;resizable=0;points=[];autosize=1;strokeColor=none;fillColor=none;fontSize=18;" parent="RbuGkNwN-ZAC3-5Zt8KE-1" vertex="1">
          <mxGeometry x="1320" y="490" width="80" height="40" as="geometry" />
        </mxCell>
        <mxCell id="22byeemKH-8XLrDROv49-1" value="Service" style="text;html=1;align=center;verticalAlign=middle;resizable=0;points=[];autosize=1;strokeColor=none;fillColor=none;fontSize=18;" parent="RbuGkNwN-ZAC3-5Zt8KE-1" vertex="1">
          <mxGeometry x="200" y="500" width="80" height="40" as="geometry" />
        </mxCell>
        <mxCell id="22byeemKH-8XLrDROv49-2" value="Aync RPI Patten" style="text;html=1;align=center;verticalAlign=middle;resizable=0;points=[];autosize=1;strokeColor=none;fillColor=none;fontSize=18;" parent="RbuGkNwN-ZAC3-5Zt8KE-1" vertex="1">
          <mxGeometry x="720" y="60" width="160" height="40" as="geometry" />
        </mxCell>
        <mxCell id="22byeemKH-8XLrDROv49-3" value="REST API" style="text;html=1;align=center;verticalAlign=middle;resizable=0;points=[];autosize=1;strokeColor=none;fillColor=none;fontSize=18;" parent="RbuGkNwN-ZAC3-5Zt8KE-1" vertex="1">
          <mxGeometry x="755" y="500" width="100" height="40" as="geometry" />
        </mxCell>
        <mxCell id="22byeemKH-8XLrDROv49-4" value="REST API Documentation Tool : Swagger UI" style="text;html=1;align=left;verticalAlign=middle;resizable=0;points=[];autosize=1;strokeColor=none;fillColor=none;" parent="RbuGkNwN-ZAC3-5Zt8KE-1" vertex="1">
          <mxGeometry x="680" y="920" width="260" height="30" as="geometry" />
        </mxCell>
        <mxCell id="22byeemKH-8XLrDROv49-5" value="Client Interface Tool&amp;nbsp; : stub" style="text;html=1;align=left;verticalAlign=middle;resizable=0;points=[];autosize=1;strokeColor=none;fillColor=none;" parent="RbuGkNwN-ZAC3-5Zt8KE-1" vertex="1">
          <mxGeometry x="680" y="960" width="170" height="30" as="geometry" />
        </mxCell>
        <mxCell id="22byeemKH-8XLrDROv49-6" value="Server Interface Tool : skeleton" style="text;html=1;align=left;verticalAlign=middle;resizable=0;points=[];autosize=1;strokeColor=none;fillColor=none;" parent="RbuGkNwN-ZAC3-5Zt8KE-1" vertex="1">
          <mxGeometry x="680" y="1000" width="190" height="30" as="geometry" />
        </mxCell>
      </root>
    </mxGraphModel>
  </diagram>
  <diagram name="Async" id="5MZ5IaSiSz_vzhHcDwQB">
    <mxGraphModel dx="1566" dy="1084" grid="1" gridSize="10" guides="1" tooltips="1" connect="1" arrows="1" fold="1" page="1" pageScale="1" pageWidth="1600" pageHeight="1200" math="0" shadow="0">
      <root>
        <mxCell id="4QUf8apbWODII_2qYx1n-0" />
        <mxCell id="4QUf8apbWODII_2qYx1n-1" parent="4QUf8apbWODII_2qYx1n-0" />
        <mxCell id="4QUf8apbWODII_2qYx1n-2" value="" style="verticalLabelPosition=bottom;verticalAlign=top;html=1;shape=mxgraph.basic.rect;fillColor2=none;strokeWidth=2;size=20;indent=5;fillColor=#f8cecc;strokeColor=#b85450;movable=1;resizable=1;rotatable=1;deletable=1;editable=1;locked=0;connectable=1;" parent="4QUf8apbWODII_2qYx1n-1" vertex="1">
          <mxGeometry x="1080" y="120" width="480" height="800" as="geometry" />
        </mxCell>
        <mxCell id="4QUf8apbWODII_2qYx1n-3" value="" style="verticalLabelPosition=bottom;verticalAlign=top;html=1;shape=mxgraph.basic.rect;fillColor2=none;strokeWidth=2;size=20;indent=5;fillColor=#f8cecc;strokeColor=#b85450;movable=1;resizable=1;rotatable=1;deletable=1;editable=1;locked=0;connectable=1;" parent="4QUf8apbWODII_2qYx1n-1" vertex="1">
          <mxGeometry x="40" y="120" width="480" height="800" as="geometry" />
        </mxCell>
        <mxCell id="4QUf8apbWODII_2qYx1n-4" value="" style="verticalLabelPosition=bottom;verticalAlign=top;html=1;shape=mxgraph.basic.rect;fillColor2=none;strokeWidth=2;size=20;indent=5;fillColor=#dae8fc;strokeColor=#6c8ebf;" parent="4QUf8apbWODII_2qYx1n-1" vertex="1">
          <mxGeometry x="1240" y="240" width="240" height="560" as="geometry" />
        </mxCell>
        <mxCell id="4QUf8apbWODII_2qYx1n-5" value="" style="verticalLabelPosition=bottom;verticalAlign=top;html=1;shape=mxgraph.basic.rect;fillColor2=none;strokeWidth=2;size=20;indent=5;fillColor=#dae8fc;strokeColor=#6c8ebf;" parent="4QUf8apbWODII_2qYx1n-1" vertex="1">
          <mxGeometry x="120" y="240" width="240" height="560" as="geometry" />
        </mxCell>
        <mxCell id="4QUf8apbWODII_2qYx1n-6" value="Message Sender" style="rounded=0;whiteSpace=wrap;html=1;" parent="4QUf8apbWODII_2qYx1n-1" vertex="1">
          <mxGeometry x="440" y="480" width="160" height="80" as="geometry" />
        </mxCell>
        <mxCell id="4QUf8apbWODII_2qYx1n-7" value="Request" style="text;html=1;align=center;verticalAlign=middle;resizable=0;points=[];autosize=1;strokeColor=none;fillColor=none;fontSize=18;" parent="4QUf8apbWODII_2qYx1n-1" vertex="1">
          <mxGeometry x="755" y="340" width="90" height="40" as="geometry" />
        </mxCell>
        <mxCell id="4QUf8apbWODII_2qYx1n-8" style="edgeStyle=orthogonalEdgeStyle;rounded=0;orthogonalLoop=1;jettySize=auto;html=1;endArrow=none;endFill=0;" parent="4QUf8apbWODII_2qYx1n-1" source="4QUf8apbWODII_2qYx1n-9" target="4QUf8apbWODII_2qYx1n-6" edge="1">
          <mxGeometry relative="1" as="geometry" />
        </mxCell>
        <mxCell id="4QUf8apbWODII_2qYx1n-9" value="" style="strokeWidth=1;html=1;shape=mxgraph.flowchart.start_2;whiteSpace=wrap;" parent="4QUf8apbWODII_2qYx1n-1" vertex="1">
          <mxGeometry x="330" y="490" width="60" height="60" as="geometry" />
        </mxCell>
        <mxCell id="5QO1uifbtw4W3aSBimwc-2" style="edgeStyle=orthogonalEdgeStyle;rounded=0;orthogonalLoop=1;jettySize=auto;html=1;entryX=1;entryY=0.5;entryDx=0;entryDy=0;endArrow=none;endFill=0;startArrow=classic;startFill=1;" parent="4QUf8apbWODII_2qYx1n-1" source="4QUf8apbWODII_2qYx1n-10" target="4QUf8apbWODII_2qYx1n-11" edge="1">
          <mxGeometry relative="1" as="geometry" />
        </mxCell>
        <mxCell id="4QUf8apbWODII_2qYx1n-10" value="" style="strokeWidth=1;html=1;shape=mxgraph.flowchart.start_2;whiteSpace=wrap;" parent="4QUf8apbWODII_2qYx1n-1" vertex="1">
          <mxGeometry x="1210" y="490" width="60" height="60" as="geometry" />
        </mxCell>
        <mxCell id="4QUf8apbWODII_2qYx1n-11" value="Message Handler" style="rounded=0;whiteSpace=wrap;html=1;" parent="4QUf8apbWODII_2qYx1n-1" vertex="1">
          <mxGeometry x="1000" y="480" width="160" height="80" as="geometry" />
        </mxCell>
        <mxCell id="4QUf8apbWODII_2qYx1n-15" value="Response" style="text;html=1;align=center;verticalAlign=middle;resizable=0;points=[];autosize=1;strokeColor=none;fillColor=none;fontSize=18;" parent="4QUf8apbWODII_2qYx1n-1" vertex="1">
          <mxGeometry x="750" y="580" width="100" height="40" as="geometry" />
        </mxCell>
        <mxCell id="pK9iWHjkWr82h2maq4wy-0" value="" style="verticalLabelPosition=bottom;verticalAlign=top;html=1;shape=mxgraph.basic.rect;fillColor2=none;strokeWidth=2;size=20;indent=5;fillColor=#f5f5f5;strokeColor=#666666;movable=1;resizable=1;rotatable=1;deletable=1;editable=1;locked=0;connectable=1;fontColor=#333333;" parent="4QUf8apbWODII_2qYx1n-1" vertex="1">
          <mxGeometry x="680" y="200" width="240" height="640" as="geometry" />
        </mxCell>
        <mxCell id="5QO1uifbtw4W3aSBimwc-4" style="edgeStyle=orthogonalEdgeStyle;rounded=0;orthogonalLoop=1;jettySize=auto;html=1;entryX=0;entryY=0.5;entryDx=0;entryDy=0;" parent="4QUf8apbWODII_2qYx1n-1" source="5QO1uifbtw4W3aSBimwc-0" target="4QUf8apbWODII_2qYx1n-11" edge="1">
          <mxGeometry relative="1" as="geometry" />
        </mxCell>
        <mxCell id="5QO1uifbtw4W3aSBimwc-0" value="" style="shape=cylinder3;whiteSpace=wrap;html=1;boundedLbl=1;backgroundOutline=1;size=15;rotation=90;" parent="4QUf8apbWODII_2qYx1n-1" vertex="1">
          <mxGeometry x="760" y="440" width="80" height="160" as="geometry" />
        </mxCell>
        <mxCell id="5QO1uifbtw4W3aSBimwc-1" value="&lt;span style=&quot;text-wrap: wrap;&quot;&gt;Message Channel&lt;/span&gt;" style="text;html=1;align=center;verticalAlign=middle;resizable=0;points=[];autosize=1;strokeColor=none;fillColor=none;" parent="4QUf8apbWODII_2qYx1n-1" vertex="1">
          <mxGeometry x="730" y="505" width="120" height="30" as="geometry" />
        </mxCell>
        <mxCell id="5QO1uifbtw4W3aSBimwc-3" style="edgeStyle=orthogonalEdgeStyle;rounded=0;orthogonalLoop=1;jettySize=auto;html=1;entryX=0.5;entryY=1;entryDx=0;entryDy=0;entryPerimeter=0;" parent="4QUf8apbWODII_2qYx1n-1" source="4QUf8apbWODII_2qYx1n-6" target="5QO1uifbtw4W3aSBimwc-0" edge="1">
          <mxGeometry relative="1" as="geometry" />
        </mxCell>
        <mxCell id="5QO1uifbtw4W3aSBimwc-5" value="Service" style="rounded=0;whiteSpace=wrap;html=1;" parent="4QUf8apbWODII_2qYx1n-1" vertex="1">
          <mxGeometry x="160" y="480" width="160" height="80" as="geometry" />
        </mxCell>
        <mxCell id="Se-DCt8Xq3IJYHokqC-m-0" value="&lt;span style=&quot;font-size: 14px;&quot;&gt;Send&lt;/span&gt;" style="text;html=1;align=center;verticalAlign=middle;resizable=0;points=[];autosize=1;strokeColor=none;fillColor=none;fontSize=18;" parent="4QUf8apbWODII_2qYx1n-1" vertex="1">
          <mxGeometry x="610" y="480" width="60" height="40" as="geometry" />
        </mxCell>
        <mxCell id="Se-DCt8Xq3IJYHokqC-m-1" value="&lt;span style=&quot;font-size: 14px;&quot;&gt;Receive&lt;/span&gt;" style="text;html=1;align=center;verticalAlign=middle;resizable=0;points=[];autosize=1;strokeColor=none;fillColor=none;fontSize=18;" parent="4QUf8apbWODII_2qYx1n-1" vertex="1">
          <mxGeometry x="925" y="480" width="70" height="40" as="geometry" />
        </mxCell>
      </root>
    </mxGraphModel>
  </diagram>
  <diagram name="Async Style" id="aitwF8WXe2rqJodkcLC5">
    <mxGraphModel dx="1566" dy="1084" grid="1" gridSize="10" guides="1" tooltips="1" connect="1" arrows="1" fold="1" page="1" pageScale="1" pageWidth="1600" pageHeight="1200" math="0" shadow="0">
      <root>
        <mxCell id="NuL0s2OVUgkJ27Z1Mg8S-0" />
        <mxCell id="NuL0s2OVUgkJ27Z1Mg8S-1" parent="NuL0s2OVUgkJ27Z1Mg8S-0" />
        <mxCell id="NuL0s2OVUgkJ27Z1Mg8S-4" value="" style="verticalLabelPosition=bottom;verticalAlign=top;html=1;shape=mxgraph.basic.rect;fillColor2=none;strokeWidth=2;size=20;indent=5;fillColor=#dae8fc;strokeColor=#6c8ebf;" parent="NuL0s2OVUgkJ27Z1Mg8S-1" vertex="1">
          <mxGeometry x="1240" y="240" width="240" height="560" as="geometry" />
        </mxCell>
        <mxCell id="NuL0s2OVUgkJ27Z1Mg8S-5" value="" style="verticalLabelPosition=bottom;verticalAlign=top;html=1;shape=mxgraph.basic.rect;fillColor2=none;strokeWidth=2;size=20;indent=5;fillColor=#dae8fc;strokeColor=#6c8ebf;" parent="NuL0s2OVUgkJ27Z1Mg8S-1" vertex="1">
          <mxGeometry x="120" y="240" width="240" height="560" as="geometry" />
        </mxCell>
        <mxCell id="NuL0s2OVUgkJ27Z1Mg8S-6" value="Message" style="rounded=0;whiteSpace=wrap;html=1;" parent="NuL0s2OVUgkJ27Z1Mg8S-1" vertex="1">
          <mxGeometry x="440" y="320" width="160" height="80" as="geometry" />
        </mxCell>
        <mxCell id="NuL0s2OVUgkJ27Z1Mg8S-7" value="Request" style="text;html=1;align=center;verticalAlign=middle;resizable=0;points=[];autosize=1;strokeColor=none;fillColor=none;fontSize=18;" parent="NuL0s2OVUgkJ27Z1Mg8S-1" vertex="1">
          <mxGeometry x="755" y="340" width="90" height="40" as="geometry" />
        </mxCell>
        <mxCell id="NuL0s2OVUgkJ27Z1Mg8S-8" style="edgeStyle=orthogonalEdgeStyle;rounded=0;orthogonalLoop=1;jettySize=auto;html=1;endArrow=none;endFill=0;fillColor=#ffe6cc;strokeColor=#d79b00;strokeWidth=2;" parent="NuL0s2OVUgkJ27Z1Mg8S-1" source="NuL0s2OVUgkJ27Z1Mg8S-9" target="NuL0s2OVUgkJ27Z1Mg8S-6" edge="1">
          <mxGeometry relative="1" as="geometry" />
        </mxCell>
        <mxCell id="NuL0s2OVUgkJ27Z1Mg8S-9" value="" style="strokeWidth=1;html=1;shape=mxgraph.flowchart.start_2;whiteSpace=wrap;" parent="NuL0s2OVUgkJ27Z1Mg8S-1" vertex="1">
          <mxGeometry x="330" y="330" width="60" height="60" as="geometry" />
        </mxCell>
        <mxCell id="NuL0s2OVUgkJ27Z1Mg8S-10" style="edgeStyle=orthogonalEdgeStyle;rounded=0;orthogonalLoop=1;jettySize=auto;html=1;entryX=1;entryY=0.5;entryDx=0;entryDy=0;endArrow=none;endFill=0;startArrow=classic;startFill=1;fillColor=#ffe6cc;strokeColor=#d79b00;strokeWidth=2;" parent="NuL0s2OVUgkJ27Z1Mg8S-1" source="NuL0s2OVUgkJ27Z1Mg8S-11" target="NuL0s2OVUgkJ27Z1Mg8S-12" edge="1">
          <mxGeometry relative="1" as="geometry" />
        </mxCell>
        <mxCell id="NuL0s2OVUgkJ27Z1Mg8S-11" value="" style="strokeWidth=1;html=1;shape=mxgraph.flowchart.start_2;whiteSpace=wrap;" parent="NuL0s2OVUgkJ27Z1Mg8S-1" vertex="1">
          <mxGeometry x="1210" y="330" width="60" height="60" as="geometry" />
        </mxCell>
        <mxCell id="NuL0s2OVUgkJ27Z1Mg8S-12" value="Message Handler" style="rounded=0;whiteSpace=wrap;html=1;" parent="NuL0s2OVUgkJ27Z1Mg8S-1" vertex="1">
          <mxGeometry x="1000" y="320" width="160" height="80" as="geometry" />
        </mxCell>
        <mxCell id="NuL0s2OVUgkJ27Z1Mg8S-13" value="Response" style="text;html=1;align=center;verticalAlign=middle;resizable=0;points=[];autosize=1;strokeColor=none;fillColor=none;fontSize=18;" parent="NuL0s2OVUgkJ27Z1Mg8S-1" vertex="1">
          <mxGeometry x="750" y="580" width="100" height="40" as="geometry" />
        </mxCell>
        <mxCell id="NuL0s2OVUgkJ27Z1Mg8S-14" value="" style="verticalLabelPosition=bottom;verticalAlign=top;html=1;shape=mxgraph.basic.rect;fillColor2=none;strokeWidth=2;size=20;indent=5;fillColor=#f5f5f5;strokeColor=#666666;movable=1;resizable=1;rotatable=1;deletable=1;editable=1;locked=0;connectable=1;fontColor=#333333;" parent="NuL0s2OVUgkJ27Z1Mg8S-1" vertex="1">
          <mxGeometry x="680" y="200" width="240" height="640" as="geometry" />
        </mxCell>
        <mxCell id="NuL0s2OVUgkJ27Z1Mg8S-15" style="edgeStyle=orthogonalEdgeStyle;rounded=0;orthogonalLoop=1;jettySize=auto;html=1;entryX=0;entryY=0.5;entryDx=0;entryDy=0;fillColor=#ffe6cc;strokeColor=#d79b00;strokeWidth=2;" parent="NuL0s2OVUgkJ27Z1Mg8S-1" target="NuL0s2OVUgkJ27Z1Mg8S-12" edge="1">
          <mxGeometry relative="1" as="geometry">
            <mxPoint x="880" y="360" as="sourcePoint" />
          </mxGeometry>
        </mxCell>
        <mxCell id="NuL0s2OVUgkJ27Z1Mg8S-18" style="edgeStyle=orthogonalEdgeStyle;rounded=0;orthogonalLoop=1;jettySize=auto;html=1;entryX=0.5;entryY=1;entryDx=0;entryDy=0;entryPerimeter=0;fillColor=#ffe6cc;strokeColor=#d79b00;strokeWidth=2;" parent="NuL0s2OVUgkJ27Z1Mg8S-1" source="NuL0s2OVUgkJ27Z1Mg8S-6" target="OgfgTf55kaC18qmdKXMM-2" edge="1">
          <mxGeometry relative="1" as="geometry">
            <mxPoint x="720" y="520" as="targetPoint" />
          </mxGeometry>
        </mxCell>
        <mxCell id="OgfgTf55kaC18qmdKXMM-1" value="" style="group" parent="NuL0s2OVUgkJ27Z1Mg8S-1" vertex="1" connectable="0">
          <mxGeometry x="720" y="320" width="160" height="80" as="geometry" />
        </mxCell>
        <mxCell id="OgfgTf55kaC18qmdKXMM-2" value="" style="shape=cylinder3;whiteSpace=wrap;html=1;boundedLbl=1;backgroundOutline=1;size=15;rotation=90;" parent="OgfgTf55kaC18qmdKXMM-1" vertex="1">
          <mxGeometry x="40" y="-40" width="80" height="160" as="geometry" />
        </mxCell>
        <mxCell id="OgfgTf55kaC18qmdKXMM-3" value="&lt;span style=&quot;text-wrap: wrap;&quot;&gt;Request Channel&lt;/span&gt;" style="text;html=1;align=center;verticalAlign=middle;resizable=0;points=[];autosize=1;strokeColor=none;fillColor=none;" parent="OgfgTf55kaC18qmdKXMM-1" vertex="1">
          <mxGeometry x="10" y="25" width="120" height="30" as="geometry" />
        </mxCell>
        <mxCell id="OgfgTf55kaC18qmdKXMM-4" value="" style="group" parent="NuL0s2OVUgkJ27Z1Mg8S-1" vertex="1" connectable="0">
          <mxGeometry x="720" y="640" width="160" height="80" as="geometry" />
        </mxCell>
        <mxCell id="OgfgTf55kaC18qmdKXMM-5" value="" style="shape=cylinder3;whiteSpace=wrap;html=1;boundedLbl=1;backgroundOutline=1;size=15;rotation=90;" parent="OgfgTf55kaC18qmdKXMM-4" vertex="1">
          <mxGeometry x="40" y="-40" width="80" height="160" as="geometry" />
        </mxCell>
        <mxCell id="OgfgTf55kaC18qmdKXMM-6" value="&lt;span style=&quot;text-wrap: wrap;&quot;&gt;Receive Channel&lt;/span&gt;" style="text;html=1;align=center;verticalAlign=middle;resizable=0;points=[];autosize=1;strokeColor=none;fillColor=none;" parent="OgfgTf55kaC18qmdKXMM-4" vertex="1">
          <mxGeometry x="15" y="25" width="110" height="30" as="geometry" />
        </mxCell>
        <mxCell id="OgfgTf55kaC18qmdKXMM-11" style="edgeStyle=orthogonalEdgeStyle;rounded=0;orthogonalLoop=1;jettySize=auto;html=1;entryX=1;entryY=0.5;entryDx=0;entryDy=0;fillColor=#dae8fc;strokeColor=#6c8ebf;strokeWidth=2;" parent="NuL0s2OVUgkJ27Z1Mg8S-1" source="OgfgTf55kaC18qmdKXMM-7" target="OgfgTf55kaC18qmdKXMM-8" edge="1">
          <mxGeometry relative="1" as="geometry" />
        </mxCell>
        <mxCell id="OgfgTf55kaC18qmdKXMM-7" value="" style="strokeWidth=1;html=1;shape=mxgraph.flowchart.start_2;whiteSpace=wrap;" parent="NuL0s2OVUgkJ27Z1Mg8S-1" vertex="1">
          <mxGeometry x="1210" y="650" width="60" height="60" as="geometry" />
        </mxCell>
        <mxCell id="OgfgTf55kaC18qmdKXMM-12" style="edgeStyle=orthogonalEdgeStyle;rounded=0;orthogonalLoop=1;jettySize=auto;html=1;fillColor=#dae8fc;strokeColor=#6c8ebf;strokeWidth=2;" parent="NuL0s2OVUgkJ27Z1Mg8S-1" source="OgfgTf55kaC18qmdKXMM-8" edge="1">
          <mxGeometry relative="1" as="geometry">
            <mxPoint x="880" y="680" as="targetPoint" />
          </mxGeometry>
        </mxCell>
        <mxCell id="OgfgTf55kaC18qmdKXMM-8" value="Message" style="rounded=0;whiteSpace=wrap;html=1;" parent="NuL0s2OVUgkJ27Z1Mg8S-1" vertex="1">
          <mxGeometry x="1000" y="640" width="160" height="80" as="geometry" />
        </mxCell>
        <mxCell id="_hroWexFCVQK53glyFfv-0" value="" style="edgeStyle=orthogonalEdgeStyle;rounded=0;orthogonalLoop=1;jettySize=auto;html=1;" parent="NuL0s2OVUgkJ27Z1Mg8S-1" source="OgfgTf55kaC18qmdKXMM-9" target="OgfgTf55kaC18qmdKXMM-10" edge="1">
          <mxGeometry relative="1" as="geometry" />
        </mxCell>
        <mxCell id="OgfgTf55kaC18qmdKXMM-9" value="Message handler" style="rounded=0;whiteSpace=wrap;html=1;" parent="NuL0s2OVUgkJ27Z1Mg8S-1" vertex="1">
          <mxGeometry x="440" y="640" width="160" height="80" as="geometry" />
        </mxCell>
        <mxCell id="OgfgTf55kaC18qmdKXMM-10" value="" style="strokeWidth=1;html=1;shape=mxgraph.flowchart.start_2;whiteSpace=wrap;" parent="NuL0s2OVUgkJ27Z1Mg8S-1" vertex="1">
          <mxGeometry x="330" y="650" width="60" height="60" as="geometry" />
        </mxCell>
        <mxCell id="OgfgTf55kaC18qmdKXMM-13" style="edgeStyle=orthogonalEdgeStyle;rounded=0;orthogonalLoop=1;jettySize=auto;html=1;entryX=1;entryY=0.5;entryDx=0;entryDy=0;fillColor=#dae8fc;strokeColor=#6c8ebf;strokeWidth=2;" parent="NuL0s2OVUgkJ27Z1Mg8S-1" source="OgfgTf55kaC18qmdKXMM-5" target="OgfgTf55kaC18qmdKXMM-9" edge="1">
          <mxGeometry relative="1" as="geometry" />
        </mxCell>
        <mxCell id="OgfgTf55kaC18qmdKXMM-14" style="edgeStyle=orthogonalEdgeStyle;rounded=0;orthogonalLoop=1;jettySize=auto;html=1;entryX=1;entryY=0.5;entryDx=0;entryDy=0;entryPerimeter=0;fillColor=#dae8fc;strokeColor=#6c8ebf;strokeWidth=2;" parent="NuL0s2OVUgkJ27Z1Mg8S-1" source="OgfgTf55kaC18qmdKXMM-9" target="OgfgTf55kaC18qmdKXMM-10" edge="1">
          <mxGeometry relative="1" as="geometry" />
        </mxCell>
        <mxCell id="ZEnuzDlUuFI134jR2IhP-4" value="" style="group" parent="NuL0s2OVUgkJ27Z1Mg8S-1" vertex="1" connectable="0">
          <mxGeometry x="460" y="410" width="100" height="130" as="geometry" />
        </mxCell>
        <mxCell id="ZEnuzDlUuFI134jR2IhP-2" style="edgeStyle=orthogonalEdgeStyle;rounded=0;orthogonalLoop=1;jettySize=auto;html=1;endArrow=none;endFill=0;" parent="ZEnuzDlUuFI134jR2IhP-4" source="ZEnuzDlUuFI134jR2IhP-0" edge="1">
          <mxGeometry relative="1" as="geometry">
            <mxPoint as="targetPoint" />
          </mxGeometry>
        </mxCell>
        <mxCell id="ZEnuzDlUuFI134jR2IhP-0" value="Header" style="rounded=0;whiteSpace=wrap;html=1;" parent="ZEnuzDlUuFI134jR2IhP-4" vertex="1">
          <mxGeometry x="20" y="10" width="80" height="40" as="geometry" />
        </mxCell>
        <mxCell id="ZEnuzDlUuFI134jR2IhP-3" style="edgeStyle=orthogonalEdgeStyle;rounded=0;orthogonalLoop=1;jettySize=auto;html=1;endArrow=none;endFill=0;" parent="ZEnuzDlUuFI134jR2IhP-4" source="ZEnuzDlUuFI134jR2IhP-1" edge="1">
          <mxGeometry relative="1" as="geometry">
            <mxPoint y="30" as="targetPoint" />
          </mxGeometry>
        </mxCell>
        <mxCell id="ZEnuzDlUuFI134jR2IhP-1" value="Body" style="rounded=0;whiteSpace=wrap;html=1;" parent="ZEnuzDlUuFI134jR2IhP-4" vertex="1">
          <mxGeometry x="20" y="90" width="80" height="40" as="geometry" />
        </mxCell>
        <mxCell id="ZEnuzDlUuFI134jR2IhP-5" value="" style="group" parent="NuL0s2OVUgkJ27Z1Mg8S-1" vertex="1" connectable="0">
          <mxGeometry x="1020" y="730" width="100" height="130" as="geometry" />
        </mxCell>
        <mxCell id="ZEnuzDlUuFI134jR2IhP-6" style="edgeStyle=orthogonalEdgeStyle;rounded=0;orthogonalLoop=1;jettySize=auto;html=1;endArrow=none;endFill=0;" parent="ZEnuzDlUuFI134jR2IhP-5" source="ZEnuzDlUuFI134jR2IhP-7" edge="1">
          <mxGeometry relative="1" as="geometry">
            <mxPoint as="targetPoint" />
          </mxGeometry>
        </mxCell>
        <mxCell id="ZEnuzDlUuFI134jR2IhP-7" value="Header" style="rounded=0;whiteSpace=wrap;html=1;" parent="ZEnuzDlUuFI134jR2IhP-5" vertex="1">
          <mxGeometry x="20" y="10" width="80" height="40" as="geometry" />
        </mxCell>
        <mxCell id="ZEnuzDlUuFI134jR2IhP-8" style="edgeStyle=orthogonalEdgeStyle;rounded=0;orthogonalLoop=1;jettySize=auto;html=1;endArrow=none;endFill=0;" parent="ZEnuzDlUuFI134jR2IhP-5" source="ZEnuzDlUuFI134jR2IhP-9" edge="1">
          <mxGeometry relative="1" as="geometry">
            <mxPoint y="30" as="targetPoint" />
          </mxGeometry>
        </mxCell>
        <mxCell id="ZEnuzDlUuFI134jR2IhP-9" value="Body" style="rounded=0;whiteSpace=wrap;html=1;" parent="ZEnuzDlUuFI134jR2IhP-5" vertex="1">
          <mxGeometry x="20" y="90" width="80" height="40" as="geometry" />
        </mxCell>
        <mxCell id="ZEnuzDlUuFI134jR2IhP-10" value="MessageId: msgId&lt;div&gt;ReturnAddress: &lt;b&gt;ReplyChannel&lt;/b&gt;&lt;/div&gt;" style="text;html=1;align=left;verticalAlign=middle;resizable=0;points=[];autosize=1;strokeColor=none;fillColor=none;" parent="NuL0s2OVUgkJ27Z1Mg8S-1" vertex="1">
          <mxGeometry x="565" y="420" width="190" height="40" as="geometry" />
        </mxCell>
        <mxCell id="ZEnuzDlUuFI134jR2IhP-11" value="CorrelationId: msgId&lt;div&gt;&lt;br&gt;&lt;/div&gt;" style="text;html=1;align=left;verticalAlign=middle;resizable=0;points=[];autosize=1;strokeColor=none;fillColor=none;" parent="NuL0s2OVUgkJ27Z1Mg8S-1" vertex="1">
          <mxGeometry x="1130" y="740" width="130" height="40" as="geometry" />
        </mxCell>
      </root>
    </mxGraphModel>
  </diagram>
  <diagram name="Async Messeging" id="O-N7sG5BXyTY6gXzg3-e">
    <mxGraphModel dx="1566" dy="1084" grid="1" gridSize="10" guides="1" tooltips="1" connect="1" arrows="1" fold="1" page="1" pageScale="1" pageWidth="1600" pageHeight="1200" math="0" shadow="0">
      <root>
        <mxCell id="me7MNW7AtPcdBD7WCM4D-0" />
        <mxCell id="me7MNW7AtPcdBD7WCM4D-1" parent="me7MNW7AtPcdBD7WCM4D-0" />
        <mxCell id="me7MNW7AtPcdBD7WCM4D-2" value="" style="verticalLabelPosition=bottom;verticalAlign=top;html=1;shape=mxgraph.basic.rect;fillColor2=none;strokeWidth=2;size=20;indent=5;fillColor=#dae8fc;strokeColor=#6c8ebf;" parent="me7MNW7AtPcdBD7WCM4D-1" vertex="1">
          <mxGeometry x="1240" y="240" width="240" height="560" as="geometry" />
        </mxCell>
        <mxCell id="me7MNW7AtPcdBD7WCM4D-3" value="" style="verticalLabelPosition=bottom;verticalAlign=top;html=1;shape=mxgraph.basic.rect;fillColor2=none;strokeWidth=2;size=20;indent=5;fillColor=#d5e8d4;strokeColor=#82b366;" parent="me7MNW7AtPcdBD7WCM4D-1" vertex="1">
          <mxGeometry x="120" y="240" width="240" height="560" as="geometry" />
        </mxCell>
        <mxCell id="me7MNW7AtPcdBD7WCM4D-4" value="Message" style="rounded=0;whiteSpace=wrap;html=1;" parent="me7MNW7AtPcdBD7WCM4D-1" vertex="1">
          <mxGeometry x="440" y="320" width="160" height="80" as="geometry" />
        </mxCell>
        <mxCell id="me7MNW7AtPcdBD7WCM4D-5" value="Request" style="text;html=1;align=center;verticalAlign=middle;resizable=0;points=[];autosize=1;strokeColor=none;fillColor=none;fontSize=18;" parent="me7MNW7AtPcdBD7WCM4D-1" vertex="1">
          <mxGeometry x="755" y="340" width="90" height="40" as="geometry" />
        </mxCell>
        <mxCell id="me7MNW7AtPcdBD7WCM4D-6" style="edgeStyle=orthogonalEdgeStyle;rounded=0;orthogonalLoop=1;jettySize=auto;html=1;endArrow=none;endFill=0;fillColor=#ffe6cc;strokeColor=#d79b00;strokeWidth=2;" parent="me7MNW7AtPcdBD7WCM4D-1" source="me7MNW7AtPcdBD7WCM4D-7" target="me7MNW7AtPcdBD7WCM4D-4" edge="1">
          <mxGeometry relative="1" as="geometry" />
        </mxCell>
        <mxCell id="me7MNW7AtPcdBD7WCM4D-7" value="" style="strokeWidth=1;html=1;shape=mxgraph.flowchart.start_2;whiteSpace=wrap;" parent="me7MNW7AtPcdBD7WCM4D-1" vertex="1">
          <mxGeometry x="330" y="330" width="60" height="60" as="geometry" />
        </mxCell>
        <mxCell id="me7MNW7AtPcdBD7WCM4D-8" style="edgeStyle=orthogonalEdgeStyle;rounded=0;orthogonalLoop=1;jettySize=auto;html=1;entryX=1;entryY=0.5;entryDx=0;entryDy=0;endArrow=none;endFill=0;startArrow=classic;startFill=1;fillColor=#ffe6cc;strokeColor=#d79b00;strokeWidth=2;" parent="me7MNW7AtPcdBD7WCM4D-1" source="me7MNW7AtPcdBD7WCM4D-9" target="me7MNW7AtPcdBD7WCM4D-10" edge="1">
          <mxGeometry relative="1" as="geometry" />
        </mxCell>
        <mxCell id="me7MNW7AtPcdBD7WCM4D-9" value="" style="strokeWidth=1;html=1;shape=mxgraph.flowchart.start_2;whiteSpace=wrap;" parent="me7MNW7AtPcdBD7WCM4D-1" vertex="1">
          <mxGeometry x="1210" y="330" width="60" height="60" as="geometry" />
        </mxCell>
        <mxCell id="me7MNW7AtPcdBD7WCM4D-10" value="Message Handler" style="rounded=0;whiteSpace=wrap;html=1;" parent="me7MNW7AtPcdBD7WCM4D-1" vertex="1">
          <mxGeometry x="1000" y="320" width="160" height="80" as="geometry" />
        </mxCell>
        <mxCell id="me7MNW7AtPcdBD7WCM4D-11" value="Response" style="text;html=1;align=center;verticalAlign=middle;resizable=0;points=[];autosize=1;strokeColor=none;fillColor=none;fontSize=18;" parent="me7MNW7AtPcdBD7WCM4D-1" vertex="1">
          <mxGeometry x="750" y="580" width="100" height="40" as="geometry" />
        </mxCell>
        <mxCell id="me7MNW7AtPcdBD7WCM4D-12" value="" style="verticalLabelPosition=bottom;verticalAlign=top;html=1;shape=mxgraph.basic.rect;fillColor2=none;strokeWidth=2;size=20;indent=5;fillColor=#f5f5f5;strokeColor=#666666;movable=1;resizable=1;rotatable=1;deletable=1;editable=1;locked=0;connectable=1;fontColor=#333333;" parent="me7MNW7AtPcdBD7WCM4D-1" vertex="1">
          <mxGeometry x="680" y="200" width="240" height="640" as="geometry" />
        </mxCell>
        <mxCell id="me7MNW7AtPcdBD7WCM4D-13" style="edgeStyle=orthogonalEdgeStyle;rounded=0;orthogonalLoop=1;jettySize=auto;html=1;entryX=0;entryY=0.5;entryDx=0;entryDy=0;fillColor=#ffe6cc;strokeColor=#d79b00;strokeWidth=2;" parent="me7MNW7AtPcdBD7WCM4D-1" target="me7MNW7AtPcdBD7WCM4D-10" edge="1">
          <mxGeometry relative="1" as="geometry">
            <mxPoint x="880" y="360" as="sourcePoint" />
          </mxGeometry>
        </mxCell>
        <mxCell id="me7MNW7AtPcdBD7WCM4D-14" style="edgeStyle=orthogonalEdgeStyle;rounded=0;orthogonalLoop=1;jettySize=auto;html=1;entryX=0.5;entryY=1;entryDx=0;entryDy=0;entryPerimeter=0;fillColor=#ffe6cc;strokeColor=#d79b00;strokeWidth=2;" parent="me7MNW7AtPcdBD7WCM4D-1" source="me7MNW7AtPcdBD7WCM4D-4" target="me7MNW7AtPcdBD7WCM4D-16" edge="1">
          <mxGeometry relative="1" as="geometry">
            <mxPoint x="720" y="520" as="targetPoint" />
          </mxGeometry>
        </mxCell>
        <mxCell id="me7MNW7AtPcdBD7WCM4D-15" value="" style="group" parent="me7MNW7AtPcdBD7WCM4D-1" vertex="1" connectable="0">
          <mxGeometry x="720" y="320" width="160" height="80" as="geometry" />
        </mxCell>
        <mxCell id="me7MNW7AtPcdBD7WCM4D-16" value="" style="shape=cylinder3;whiteSpace=wrap;html=1;boundedLbl=1;backgroundOutline=1;size=15;rotation=90;" parent="me7MNW7AtPcdBD7WCM4D-15" vertex="1">
          <mxGeometry x="40" y="-40" width="80" height="160" as="geometry" />
        </mxCell>
        <mxCell id="me7MNW7AtPcdBD7WCM4D-17" value="&lt;span style=&quot;text-wrap: wrap;&quot;&gt;Command Channel&lt;/span&gt;" style="text;html=1;align=center;verticalAlign=middle;resizable=0;points=[];autosize=1;strokeColor=none;fillColor=none;" parent="me7MNW7AtPcdBD7WCM4D-15" vertex="1">
          <mxGeometry x="5" y="25" width="130" height="30" as="geometry" />
        </mxCell>
        <mxCell id="me7MNW7AtPcdBD7WCM4D-18" value="" style="group" parent="me7MNW7AtPcdBD7WCM4D-1" vertex="1" connectable="0">
          <mxGeometry x="720" y="640" width="160" height="80" as="geometry" />
        </mxCell>
        <mxCell id="me7MNW7AtPcdBD7WCM4D-19" value="" style="shape=cylinder3;whiteSpace=wrap;html=1;boundedLbl=1;backgroundOutline=1;size=15;rotation=90;" parent="me7MNW7AtPcdBD7WCM4D-18" vertex="1">
          <mxGeometry x="40" y="-40" width="80" height="160" as="geometry" />
        </mxCell>
        <mxCell id="me7MNW7AtPcdBD7WCM4D-20" value="&lt;span style=&quot;text-wrap: wrap;&quot;&gt;Event Channel&lt;/span&gt;" style="text;html=1;align=center;verticalAlign=middle;resizable=0;points=[];autosize=1;strokeColor=none;fillColor=none;" parent="me7MNW7AtPcdBD7WCM4D-18" vertex="1">
          <mxGeometry x="20" y="25" width="100" height="30" as="geometry" />
        </mxCell>
        <mxCell id="me7MNW7AtPcdBD7WCM4D-21" style="edgeStyle=orthogonalEdgeStyle;rounded=0;orthogonalLoop=1;jettySize=auto;html=1;entryX=1;entryY=0.5;entryDx=0;entryDy=0;fillColor=#dae8fc;strokeColor=#6c8ebf;strokeWidth=2;" parent="me7MNW7AtPcdBD7WCM4D-1" source="me7MNW7AtPcdBD7WCM4D-22" target="me7MNW7AtPcdBD7WCM4D-24" edge="1">
          <mxGeometry relative="1" as="geometry" />
        </mxCell>
        <mxCell id="me7MNW7AtPcdBD7WCM4D-22" value="" style="strokeWidth=1;html=1;shape=mxgraph.flowchart.start_2;whiteSpace=wrap;" parent="me7MNW7AtPcdBD7WCM4D-1" vertex="1">
          <mxGeometry x="1210" y="650" width="60" height="60" as="geometry" />
        </mxCell>
        <mxCell id="me7MNW7AtPcdBD7WCM4D-23" style="edgeStyle=orthogonalEdgeStyle;rounded=0;orthogonalLoop=1;jettySize=auto;html=1;fillColor=#dae8fc;strokeColor=#6c8ebf;strokeWidth=2;" parent="me7MNW7AtPcdBD7WCM4D-1" source="me7MNW7AtPcdBD7WCM4D-24" edge="1">
          <mxGeometry relative="1" as="geometry">
            <mxPoint x="880" y="680" as="targetPoint" />
          </mxGeometry>
        </mxCell>
        <mxCell id="me7MNW7AtPcdBD7WCM4D-24" value="Message" style="rounded=0;whiteSpace=wrap;html=1;" parent="me7MNW7AtPcdBD7WCM4D-1" vertex="1">
          <mxGeometry x="1000" y="640" width="160" height="80" as="geometry" />
        </mxCell>
        <mxCell id="me7MNW7AtPcdBD7WCM4D-25" value="Message handler" style="rounded=0;whiteSpace=wrap;html=1;" parent="me7MNW7AtPcdBD7WCM4D-1" vertex="1">
          <mxGeometry x="440" y="640" width="160" height="80" as="geometry" />
        </mxCell>
        <mxCell id="me7MNW7AtPcdBD7WCM4D-26" value="" style="strokeWidth=1;html=1;shape=mxgraph.flowchart.start_2;whiteSpace=wrap;" parent="me7MNW7AtPcdBD7WCM4D-1" vertex="1">
          <mxGeometry x="330" y="650" width="60" height="60" as="geometry" />
        </mxCell>
        <mxCell id="me7MNW7AtPcdBD7WCM4D-27" style="edgeStyle=orthogonalEdgeStyle;rounded=0;orthogonalLoop=1;jettySize=auto;html=1;entryX=1;entryY=0.5;entryDx=0;entryDy=0;fillColor=#dae8fc;strokeColor=#6c8ebf;strokeWidth=2;" parent="me7MNW7AtPcdBD7WCM4D-1" source="me7MNW7AtPcdBD7WCM4D-19" target="me7MNW7AtPcdBD7WCM4D-25" edge="1">
          <mxGeometry relative="1" as="geometry" />
        </mxCell>
        <mxCell id="me7MNW7AtPcdBD7WCM4D-28" style="edgeStyle=orthogonalEdgeStyle;rounded=0;orthogonalLoop=1;jettySize=auto;html=1;entryX=1;entryY=0.5;entryDx=0;entryDy=0;entryPerimeter=0;fillColor=#dae8fc;strokeColor=#6c8ebf;strokeWidth=2;" parent="me7MNW7AtPcdBD7WCM4D-1" source="me7MNW7AtPcdBD7WCM4D-25" target="me7MNW7AtPcdBD7WCM4D-26" edge="1">
          <mxGeometry relative="1" as="geometry" />
        </mxCell>
        <mxCell id="Fl3NYuf2NJkGxpblkYpR-0" value="Service" style="rounded=0;whiteSpace=wrap;html=1;" parent="me7MNW7AtPcdBD7WCM4D-1" vertex="1">
          <mxGeometry x="1280" y="480" width="160" height="80" as="geometry" />
        </mxCell>
        <mxCell id="ReWxhk9RRw54N1RWLkxb-0" value="Command&lt;div&gt;Query&lt;/div&gt;" style="text;html=1;align=left;verticalAlign=middle;resizable=0;points=[];autosize=1;strokeColor=none;fillColor=none;" parent="me7MNW7AtPcdBD7WCM4D-1" vertex="1">
          <mxGeometry x="1290" y="340" width="80" height="40" as="geometry" />
        </mxCell>
        <mxCell id="ReWxhk9RRw54N1RWLkxb-1" value="Event" style="text;html=1;align=left;verticalAlign=middle;resizable=0;points=[];autosize=1;strokeColor=none;fillColor=none;" parent="me7MNW7AtPcdBD7WCM4D-1" vertex="1">
          <mxGeometry x="1290" y="665" width="50" height="30" as="geometry" />
        </mxCell>
      </root>
    </mxGraphModel>
  </diagram>
  <diagram name="Async Messeging Style" id="C-WkDTkLQfzpY8xdlpkE">
    <mxGraphModel dx="1303" dy="1128" grid="1" gridSize="10" guides="1" tooltips="1" connect="1" arrows="1" fold="1" page="1" pageScale="1" pageWidth="1600" pageHeight="1200" math="0" shadow="0">
      <root>
        <mxCell id="frvRMYEfwSrypiudUwJl-0" />
        <mxCell id="frvRMYEfwSrypiudUwJl-1" parent="frvRMYEfwSrypiudUwJl-0" />
        <mxCell id="frvRMYEfwSrypiudUwJl-2" value="" style="verticalLabelPosition=bottom;verticalAlign=top;html=1;shape=mxgraph.basic.rect;fillColor2=none;strokeWidth=2;size=20;indent=5;fillColor=#dae8fc;strokeColor=#6c8ebf;" parent="frvRMYEfwSrypiudUwJl-1" vertex="1">
          <mxGeometry x="1240" y="280" width="240" height="200" as="geometry" />
        </mxCell>
        <mxCell id="frvRMYEfwSrypiudUwJl-3" value="" style="verticalLabelPosition=bottom;verticalAlign=top;html=1;shape=mxgraph.basic.rect;fillColor2=none;strokeWidth=2;size=20;indent=5;fillColor=#d5e8d4;strokeColor=#82b366;" parent="frvRMYEfwSrypiudUwJl-1" vertex="1">
          <mxGeometry x="120" y="280" width="240" height="480" as="geometry" />
        </mxCell>
        <mxCell id="frvRMYEfwSrypiudUwJl-5" value="Request" style="text;html=1;align=center;verticalAlign=middle;resizable=0;points=[];autosize=1;strokeColor=none;fillColor=none;fontSize=18;" parent="frvRMYEfwSrypiudUwJl-1" vertex="1">
          <mxGeometry x="755" y="340" width="90" height="40" as="geometry" />
        </mxCell>
        <mxCell id="frvRMYEfwSrypiudUwJl-11" value="Response" style="text;html=1;align=center;verticalAlign=middle;resizable=0;points=[];autosize=1;strokeColor=none;fillColor=none;fontSize=18;" parent="frvRMYEfwSrypiudUwJl-1" vertex="1">
          <mxGeometry x="750" y="580" width="100" height="40" as="geometry" />
        </mxCell>
        <mxCell id="frvRMYEfwSrypiudUwJl-12" value="" style="verticalLabelPosition=bottom;verticalAlign=top;html=1;shape=mxgraph.basic.rect;fillColor2=none;strokeWidth=2;size=20;indent=5;fillColor=#f5f5f5;strokeColor=#666666;movable=1;resizable=1;rotatable=1;deletable=1;editable=1;locked=0;connectable=1;fontColor=#333333;" parent="frvRMYEfwSrypiudUwJl-1" vertex="1">
          <mxGeometry x="960" y="200" width="240" height="640" as="geometry" />
        </mxCell>
        <mxCell id="nDVSDfKAimCNbBA39R3S-0" value="" style="verticalLabelPosition=bottom;verticalAlign=top;html=1;shape=mxgraph.basic.rect;fillColor2=none;strokeWidth=2;size=20;indent=5;fillColor=#f5f5f5;strokeColor=#666666;movable=1;resizable=1;rotatable=1;deletable=1;editable=1;locked=0;connectable=1;fontColor=#333333;" parent="frvRMYEfwSrypiudUwJl-1" vertex="1">
          <mxGeometry x="400" y="200" width="240" height="640" as="geometry" />
        </mxCell>
        <mxCell id="nDVSDfKAimCNbBA39R3S-1" value="" style="verticalLabelPosition=bottom;verticalAlign=top;html=1;shape=mxgraph.basic.rect;fillColor2=none;strokeWidth=2;size=20;indent=5;fillColor=#dae8fc;strokeColor=#6c8ebf;" parent="frvRMYEfwSrypiudUwJl-1" vertex="1">
          <mxGeometry x="680" y="280" width="240" height="480" as="geometry" />
        </mxCell>
        <mxCell id="ORan-qLnj6kBa1ZEKLkx-0" value="" style="group;fillColor=none;" parent="frvRMYEfwSrypiudUwJl-1" vertex="1" connectable="0">
          <mxGeometry x="440" y="320" width="160" height="80" as="geometry" />
        </mxCell>
        <mxCell id="ORan-qLnj6kBa1ZEKLkx-1" value="" style="shape=cylinder3;whiteSpace=wrap;html=1;boundedLbl=1;backgroundOutline=1;size=15;rotation=90;" parent="ORan-qLnj6kBa1ZEKLkx-0" vertex="1">
          <mxGeometry x="40" y="-40" width="80" height="160" as="geometry" />
        </mxCell>
        <mxCell id="ORan-qLnj6kBa1ZEKLkx-2" value="&lt;span style=&quot;text-wrap: wrap;&quot;&gt;Command Channel&lt;/span&gt;" style="text;html=1;align=center;verticalAlign=middle;resizable=0;points=[];autosize=1;strokeColor=none;fillColor=none;" parent="ORan-qLnj6kBa1ZEKLkx-0" vertex="1">
          <mxGeometry x="5" y="25" width="130" height="30" as="geometry" />
        </mxCell>
        <mxCell id="ORan-qLnj6kBa1ZEKLkx-3" value="" style="group" parent="frvRMYEfwSrypiudUwJl-1" vertex="1" connectable="0">
          <mxGeometry x="440" y="640" width="160" height="80" as="geometry" />
        </mxCell>
        <mxCell id="ORan-qLnj6kBa1ZEKLkx-4" value="" style="shape=cylinder3;whiteSpace=wrap;html=1;boundedLbl=1;backgroundOutline=1;size=15;rotation=90;" parent="ORan-qLnj6kBa1ZEKLkx-3" vertex="1">
          <mxGeometry x="40" y="-40" width="80" height="160" as="geometry" />
        </mxCell>
        <mxCell id="ORan-qLnj6kBa1ZEKLkx-5" value="&lt;span style=&quot;text-wrap: wrap;&quot;&gt;Event Channel&lt;/span&gt;" style="text;html=1;align=center;verticalAlign=middle;resizable=0;points=[];autosize=1;strokeColor=none;fillColor=none;" parent="ORan-qLnj6kBa1ZEKLkx-3" vertex="1">
          <mxGeometry x="20" y="25" width="100" height="30" as="geometry" />
        </mxCell>
        <mxCell id="ORan-qLnj6kBa1ZEKLkx-6" value="" style="group" parent="frvRMYEfwSrypiudUwJl-1" vertex="1" connectable="0">
          <mxGeometry x="1000" y="280" width="160" height="80" as="geometry" />
        </mxCell>
        <mxCell id="ORan-qLnj6kBa1ZEKLkx-7" value="" style="shape=cylinder3;whiteSpace=wrap;html=1;boundedLbl=1;backgroundOutline=1;size=15;rotation=90;" parent="ORan-qLnj6kBa1ZEKLkx-6" vertex="1">
          <mxGeometry x="40" y="-40" width="80" height="160" as="geometry" />
        </mxCell>
        <mxCell id="ORan-qLnj6kBa1ZEKLkx-8" value="&lt;span style=&quot;text-wrap: wrap;&quot;&gt;Command Channel&lt;/span&gt;" style="text;html=1;align=center;verticalAlign=middle;resizable=0;points=[];autosize=1;strokeColor=none;fillColor=none;" parent="ORan-qLnj6kBa1ZEKLkx-6" vertex="1">
          <mxGeometry x="5" y="25" width="130" height="30" as="geometry" />
        </mxCell>
        <mxCell id="ORan-qLnj6kBa1ZEKLkx-9" value="" style="group" parent="frvRMYEfwSrypiudUwJl-1" vertex="1" connectable="0">
          <mxGeometry x="1000" y="400" width="160" height="80" as="geometry" />
        </mxCell>
        <mxCell id="ORan-qLnj6kBa1ZEKLkx-10" value="" style="shape=cylinder3;whiteSpace=wrap;html=1;boundedLbl=1;backgroundOutline=1;size=15;rotation=90;" parent="ORan-qLnj6kBa1ZEKLkx-9" vertex="1">
          <mxGeometry x="40" y="-40" width="80" height="160" as="geometry" />
        </mxCell>
        <mxCell id="ORan-qLnj6kBa1ZEKLkx-11" value="&lt;span style=&quot;text-wrap: wrap;&quot;&gt;Event Channel&lt;/span&gt;" style="text;html=1;align=center;verticalAlign=middle;resizable=0;points=[];autosize=1;strokeColor=none;fillColor=none;" parent="ORan-qLnj6kBa1ZEKLkx-9" vertex="1">
          <mxGeometry x="20" y="25" width="100" height="30" as="geometry" />
        </mxCell>
        <mxCell id="ORan-qLnj6kBa1ZEKLkx-12" value="" style="group" parent="frvRMYEfwSrypiudUwJl-1" vertex="1" connectable="0">
          <mxGeometry x="1000" y="560" width="160" height="80" as="geometry" />
        </mxCell>
        <mxCell id="ORan-qLnj6kBa1ZEKLkx-13" value="" style="shape=cylinder3;whiteSpace=wrap;html=1;boundedLbl=1;backgroundOutline=1;size=15;rotation=90;" parent="ORan-qLnj6kBa1ZEKLkx-12" vertex="1">
          <mxGeometry x="40" y="-40" width="80" height="160" as="geometry" />
        </mxCell>
        <mxCell id="ORan-qLnj6kBa1ZEKLkx-14" value="&lt;span style=&quot;text-wrap: wrap;&quot;&gt;Command Channel&lt;/span&gt;" style="text;html=1;align=center;verticalAlign=middle;resizable=0;points=[];autosize=1;strokeColor=none;fillColor=none;" parent="ORan-qLnj6kBa1ZEKLkx-12" vertex="1">
          <mxGeometry x="5" y="25" width="130" height="30" as="geometry" />
        </mxCell>
        <mxCell id="ORan-qLnj6kBa1ZEKLkx-15" value="" style="group" parent="frvRMYEfwSrypiudUwJl-1" vertex="1" connectable="0">
          <mxGeometry x="1000" y="680" width="160" height="80" as="geometry" />
        </mxCell>
        <mxCell id="ORan-qLnj6kBa1ZEKLkx-16" value="" style="shape=cylinder3;whiteSpace=wrap;html=1;boundedLbl=1;backgroundOutline=1;size=15;rotation=90;" parent="ORan-qLnj6kBa1ZEKLkx-15" vertex="1">
          <mxGeometry x="40" y="-40" width="80" height="160" as="geometry" />
        </mxCell>
        <mxCell id="ORan-qLnj6kBa1ZEKLkx-17" value="&lt;span style=&quot;text-wrap: wrap;&quot;&gt;Event Channel&lt;/span&gt;" style="text;html=1;align=center;verticalAlign=middle;resizable=0;points=[];autosize=1;strokeColor=none;fillColor=none;" parent="ORan-qLnj6kBa1ZEKLkx-15" vertex="1">
          <mxGeometry x="20" y="25" width="100" height="30" as="geometry" />
        </mxCell>
        <mxCell id="ORan-qLnj6kBa1ZEKLkx-18" value="" style="verticalLabelPosition=bottom;verticalAlign=top;html=1;shape=mxgraph.basic.rect;fillColor2=none;strokeWidth=2;size=20;indent=5;fillColor=#dae8fc;strokeColor=#6c8ebf;" parent="frvRMYEfwSrypiudUwJl-1" vertex="1">
          <mxGeometry x="1240" y="560" width="240" height="200" as="geometry" />
        </mxCell>
        <mxCell id="lfanwTnjrDFU-ZvBp7NX-0" value="Service" style="rounded=0;whiteSpace=wrap;html=1;" parent="frvRMYEfwSrypiudUwJl-1" vertex="1">
          <mxGeometry x="1280" y="340" width="160" height="80" as="geometry" />
        </mxCell>
        <mxCell id="lfanwTnjrDFU-ZvBp7NX-1" value="Service" style="rounded=0;whiteSpace=wrap;html=1;" parent="frvRMYEfwSrypiudUwJl-1" vertex="1">
          <mxGeometry x="1280" y="620" width="160" height="80" as="geometry" />
        </mxCell>
        <mxCell id="lfanwTnjrDFU-ZvBp7NX-2" value="Service" style="rounded=0;whiteSpace=wrap;html=1;" parent="frvRMYEfwSrypiudUwJl-1" vertex="1">
          <mxGeometry x="720" y="480" width="160" height="80" as="geometry" />
        </mxCell>
        <mxCell id="k5aAREIo56U-LCld3ZRt-1" style="edgeStyle=orthogonalEdgeStyle;rounded=0;orthogonalLoop=1;jettySize=auto;html=1;entryX=1.008;entryY=0.085;entryDx=0;entryDy=0;entryPerimeter=0;exitX=0.5;exitY=1;exitDx=0;exitDy=0;exitPerimeter=0;startArrow=classic;startFill=1;endArrow=none;endFill=0;fillColor=#ffe6cc;strokeColor=#d79b00;strokeWidth=2;" parent="frvRMYEfwSrypiudUwJl-1" source="ORan-qLnj6kBa1ZEKLkx-7" target="nDVSDfKAimCNbBA39R3S-1" edge="1">
          <mxGeometry relative="1" as="geometry">
            <mxPoint x="1000" y="321" as="sourcePoint" />
          </mxGeometry>
        </mxCell>
        <mxCell id="k5aAREIo56U-LCld3ZRt-2" style="edgeStyle=orthogonalEdgeStyle;rounded=0;orthogonalLoop=1;jettySize=auto;html=1;entryX=0;entryY=0.2;entryDx=0;entryDy=0;entryPerimeter=0;fillColor=#ffe6cc;strokeColor=#d79b00;strokeWidth=2;" parent="frvRMYEfwSrypiudUwJl-1" source="ORan-qLnj6kBa1ZEKLkx-7" target="frvRMYEfwSrypiudUwJl-2" edge="1">
          <mxGeometry relative="1" as="geometry" />
        </mxCell>
        <mxCell id="k5aAREIo56U-LCld3ZRt-3" style="edgeStyle=orthogonalEdgeStyle;rounded=0;orthogonalLoop=1;jettySize=auto;html=1;entryX=-0.012;entryY=0.8;entryDx=0;entryDy=0;entryPerimeter=0;startArrow=classic;startFill=1;endArrow=none;endFill=0;strokeWidth=2;fillColor=#dae8fc;strokeColor=#6c8ebf;" parent="frvRMYEfwSrypiudUwJl-1" source="ORan-qLnj6kBa1ZEKLkx-10" target="frvRMYEfwSrypiudUwJl-2" edge="1">
          <mxGeometry relative="1" as="geometry" />
        </mxCell>
        <mxCell id="k5aAREIo56U-LCld3ZRt-4" style="edgeStyle=orthogonalEdgeStyle;rounded=0;orthogonalLoop=1;jettySize=auto;html=1;entryX=1.008;entryY=0.333;entryDx=0;entryDy=0;entryPerimeter=0;strokeWidth=2;fillColor=#dae8fc;strokeColor=#6c8ebf;" parent="frvRMYEfwSrypiudUwJl-1" source="ORan-qLnj6kBa1ZEKLkx-10" target="nDVSDfKAimCNbBA39R3S-1" edge="1">
          <mxGeometry relative="1" as="geometry" />
        </mxCell>
        <mxCell id="k5aAREIo56U-LCld3ZRt-5" style="edgeStyle=orthogonalEdgeStyle;rounded=0;orthogonalLoop=1;jettySize=auto;html=1;entryX=0.004;entryY=0.2;entryDx=0;entryDy=0;entryPerimeter=0;fillColor=#ffe6cc;strokeColor=#d79b00;strokeWidth=2;" parent="frvRMYEfwSrypiudUwJl-1" source="ORan-qLnj6kBa1ZEKLkx-13" target="ORan-qLnj6kBa1ZEKLkx-18" edge="1">
          <mxGeometry relative="1" as="geometry" />
        </mxCell>
        <mxCell id="k5aAREIo56U-LCld3ZRt-6" style="edgeStyle=orthogonalEdgeStyle;rounded=0;orthogonalLoop=1;jettySize=auto;html=1;entryX=1;entryY=0.665;entryDx=0;entryDy=0;entryPerimeter=0;startArrow=classic;startFill=1;endArrow=none;endFill=0;fillColor=#ffe6cc;strokeColor=#d79b00;strokeWidth=2;" parent="frvRMYEfwSrypiudUwJl-1" source="ORan-qLnj6kBa1ZEKLkx-14" target="nDVSDfKAimCNbBA39R3S-1" edge="1">
          <mxGeometry relative="1" as="geometry" />
        </mxCell>
        <mxCell id="k5aAREIo56U-LCld3ZRt-7" style="edgeStyle=orthogonalEdgeStyle;rounded=0;orthogonalLoop=1;jettySize=auto;html=1;entryX=0.008;entryY=0.8;entryDx=0;entryDy=0;entryPerimeter=0;endArrow=none;endFill=0;startArrow=classic;startFill=1;strokeWidth=2;fillColor=#dae8fc;strokeColor=#6c8ebf;" parent="frvRMYEfwSrypiudUwJl-1" source="ORan-qLnj6kBa1ZEKLkx-16" target="ORan-qLnj6kBa1ZEKLkx-18" edge="1">
          <mxGeometry relative="1" as="geometry" />
        </mxCell>
        <mxCell id="k5aAREIo56U-LCld3ZRt-9" style="edgeStyle=orthogonalEdgeStyle;rounded=0;orthogonalLoop=1;jettySize=auto;html=1;entryX=0.996;entryY=0.917;entryDx=0;entryDy=0;entryPerimeter=0;strokeWidth=2;fillColor=#dae8fc;strokeColor=#6c8ebf;" parent="frvRMYEfwSrypiudUwJl-1" source="ORan-qLnj6kBa1ZEKLkx-16" target="nDVSDfKAimCNbBA39R3S-1" edge="1">
          <mxGeometry relative="1" as="geometry" />
        </mxCell>
        <mxCell id="k5aAREIo56U-LCld3ZRt-10" style="edgeStyle=orthogonalEdgeStyle;rounded=0;orthogonalLoop=1;jettySize=auto;html=1;entryX=1.008;entryY=0.167;entryDx=0;entryDy=0;entryPerimeter=0;endArrow=none;endFill=0;startArrow=classic;startFill=1;exitX=0.5;exitY=1;exitDx=0;exitDy=0;exitPerimeter=0;fillColor=#ffe6cc;strokeColor=#d79b00;strokeWidth=2;" parent="frvRMYEfwSrypiudUwJl-1" source="ORan-qLnj6kBa1ZEKLkx-1" target="frvRMYEfwSrypiudUwJl-3" edge="1">
          <mxGeometry relative="1" as="geometry">
            <mxPoint x="440" y="360" as="sourcePoint" />
          </mxGeometry>
        </mxCell>
        <mxCell id="k5aAREIo56U-LCld3ZRt-11" style="edgeStyle=orthogonalEdgeStyle;rounded=0;orthogonalLoop=1;jettySize=auto;html=1;entryX=1.004;entryY=0.833;entryDx=0;entryDy=0;entryPerimeter=0;strokeWidth=2;fillColor=#dae8fc;strokeColor=#6c8ebf;" parent="frvRMYEfwSrypiudUwJl-1" source="ORan-qLnj6kBa1ZEKLkx-4" target="frvRMYEfwSrypiudUwJl-3" edge="1">
          <mxGeometry relative="1" as="geometry" />
        </mxCell>
        <mxCell id="k5aAREIo56U-LCld3ZRt-13" style="edgeStyle=orthogonalEdgeStyle;rounded=0;orthogonalLoop=1;jettySize=auto;html=1;entryX=-0.004;entryY=0.167;entryDx=0;entryDy=0;entryPerimeter=0;fillColor=#ffe6cc;strokeColor=#d79b00;strokeWidth=2;" parent="frvRMYEfwSrypiudUwJl-1" source="ORan-qLnj6kBa1ZEKLkx-1" target="nDVSDfKAimCNbBA39R3S-1" edge="1">
          <mxGeometry relative="1" as="geometry" />
        </mxCell>
        <mxCell id="k5aAREIo56U-LCld3ZRt-14" style="edgeStyle=orthogonalEdgeStyle;rounded=0;orthogonalLoop=1;jettySize=auto;html=1;entryX=-0.017;entryY=0.833;entryDx=0;entryDy=0;entryPerimeter=0;startArrow=classic;startFill=1;endArrow=none;endFill=0;strokeWidth=2;fillColor=#dae8fc;strokeColor=#6c8ebf;" parent="frvRMYEfwSrypiudUwJl-1" source="ORan-qLnj6kBa1ZEKLkx-4" target="nDVSDfKAimCNbBA39R3S-1" edge="1">
          <mxGeometry relative="1" as="geometry" />
        </mxCell>
      </root>
    </mxGraphModel>
  </diagram>
  <diagram id="rmzlvzCOccLPU7AEbwIJ" name="Async Messeging Flow">
    <mxGraphModel dx="1303" dy="1128" grid="1" gridSize="10" guides="1" tooltips="1" connect="1" arrows="1" fold="1" page="1" pageScale="1" pageWidth="1600" pageHeight="1200" math="0" shadow="0">
      <root>
        <mxCell id="0" />
        <mxCell id="1" parent="0" />
        <mxCell id="MZYhBqn2FubFB9Swrxx_-2" value="" style="rounded=0;whiteSpace=wrap;html=1;fillColor=#fff2cc;strokeWidth=2;dashed=1;strokeColor=#d6b656;" parent="1" vertex="1">
          <mxGeometry x="680" y="440" width="800" height="520" as="geometry" />
        </mxCell>
        <mxCell id="zah608QgAz4FR2NhL08b-16" value="" style="rounded=0;whiteSpace=wrap;html=1;fillColor=#f5f5f5;strokeWidth=2;dashed=1;fontColor=#333333;strokeColor=#666666;" parent="1" vertex="1">
          <mxGeometry x="120" y="240" width="520" height="200" as="geometry" />
        </mxCell>
        <mxCell id="zah608QgAz4FR2NhL08b-5" style="edgeStyle=orthogonalEdgeStyle;rounded=0;orthogonalLoop=1;jettySize=auto;html=1;strokeWidth=2;endArrow=none;endFill=0;" parent="1" source="MOb_1fBFhbJJ98RNatOI-1" edge="1">
          <mxGeometry relative="1" as="geometry">
            <mxPoint x="1360" y="1000" as="targetPoint" />
          </mxGeometry>
        </mxCell>
        <mxCell id="MOb_1fBFhbJJ98RNatOI-1" value="Service" style="rounded=0;whiteSpace=wrap;html=1;fillColor=#dae8fc;strokeColor=#6c8ebf;" parent="1" vertex="1">
          <mxGeometry x="1280" y="120" width="160" height="80" as="geometry" />
        </mxCell>
        <mxCell id="zah608QgAz4FR2NhL08b-4" style="edgeStyle=orthogonalEdgeStyle;rounded=0;orthogonalLoop=1;jettySize=auto;html=1;strokeWidth=2;endArrow=none;endFill=0;" parent="1" source="MOb_1fBFhbJJ98RNatOI-2" edge="1">
          <mxGeometry relative="1" as="geometry">
            <mxPoint x="1080" y="1000" as="targetPoint" />
          </mxGeometry>
        </mxCell>
        <mxCell id="MOb_1fBFhbJJ98RNatOI-2" value="Service" style="rounded=0;whiteSpace=wrap;html=1;fillColor=#dae8fc;strokeColor=#6c8ebf;" parent="1" vertex="1">
          <mxGeometry x="1000" y="120" width="160" height="80" as="geometry" />
        </mxCell>
        <mxCell id="zah608QgAz4FR2NhL08b-3" style="edgeStyle=orthogonalEdgeStyle;rounded=0;orthogonalLoop=1;jettySize=auto;html=1;strokeWidth=2;endArrow=none;endFill=0;" parent="1" source="J_mwjicIZL1nrzVpQj2f-1" edge="1">
          <mxGeometry relative="1" as="geometry">
            <mxPoint x="800" y="1001" as="targetPoint" />
          </mxGeometry>
        </mxCell>
        <mxCell id="J_mwjicIZL1nrzVpQj2f-1" value="Service" style="rounded=0;whiteSpace=wrap;html=1;fillColor=#dae8fc;strokeColor=#6c8ebf;" parent="1" vertex="1">
          <mxGeometry x="720" y="120" width="160" height="80" as="geometry" />
        </mxCell>
        <mxCell id="zah608QgAz4FR2NhL08b-2" style="edgeStyle=orthogonalEdgeStyle;rounded=0;orthogonalLoop=1;jettySize=auto;html=1;strokeWidth=2;endArrow=none;endFill=0;" parent="1" source="J_mwjicIZL1nrzVpQj2f-2" edge="1">
          <mxGeometry relative="1" as="geometry">
            <mxPoint x="520" y="1000" as="targetPoint" />
          </mxGeometry>
        </mxCell>
        <mxCell id="J_mwjicIZL1nrzVpQj2f-2" value="Service" style="rounded=0;whiteSpace=wrap;html=1;fillColor=#dae8fc;strokeColor=#6c8ebf;" parent="1" vertex="1">
          <mxGeometry x="440" y="120" width="160" height="80" as="geometry" />
        </mxCell>
        <mxCell id="zah608QgAz4FR2NhL08b-1" style="edgeStyle=orthogonalEdgeStyle;rounded=0;orthogonalLoop=1;jettySize=auto;html=1;strokeWidth=2;endArrow=none;endFill=0;" parent="1" source="J_mwjicIZL1nrzVpQj2f-3" edge="1">
          <mxGeometry relative="1" as="geometry">
            <mxPoint x="240" y="1000" as="targetPoint" />
          </mxGeometry>
        </mxCell>
        <mxCell id="J_mwjicIZL1nrzVpQj2f-3" value="Client" style="rounded=0;whiteSpace=wrap;html=1;fillColor=#d5e8d4;strokeColor=#82b366;" parent="1" vertex="1">
          <mxGeometry x="160" y="120" width="160" height="80" as="geometry" />
        </mxCell>
        <mxCell id="zah608QgAz4FR2NhL08b-6" value="" style="endArrow=classic;html=1;rounded=0;fillColor=#d5e8d4;strokeColor=#82b366;strokeWidth=2;" parent="1" edge="1">
          <mxGeometry width="50" height="50" relative="1" as="geometry">
            <mxPoint x="240" y="280" as="sourcePoint" />
            <mxPoint x="520" y="280" as="targetPoint" />
          </mxGeometry>
        </mxCell>
        <mxCell id="zah608QgAz4FR2NhL08b-7" value="" style="endArrow=none;html=1;rounded=0;startArrow=classic;startFill=1;endFill=0;strokeWidth=2;fillColor=#d5e8d4;strokeColor=#82b366;" parent="1" edge="1">
          <mxGeometry width="50" height="50" relative="1" as="geometry">
            <mxPoint x="240" y="400" as="sourcePoint" />
            <mxPoint x="520" y="400" as="targetPoint" />
          </mxGeometry>
        </mxCell>
        <mxCell id="zah608QgAz4FR2NhL08b-8" value="" style="endArrow=classic;html=1;rounded=0;fillColor=#dae8fc;strokeColor=#6c8ebf;strokeWidth=2;" parent="1" edge="1">
          <mxGeometry width="50" height="50" relative="1" as="geometry">
            <mxPoint x="520" y="320" as="sourcePoint" />
            <mxPoint x="520" y="360" as="targetPoint" />
            <Array as="points">
              <mxPoint x="600" y="320" />
              <mxPoint x="600" y="340" />
              <mxPoint x="600" y="360" />
            </Array>
          </mxGeometry>
        </mxCell>
        <mxCell id="zah608QgAz4FR2NhL08b-9" value="" style="endArrow=none;html=1;rounded=0;startArrow=classic;startFill=1;endFill=0;fillColor=#e1d5e7;strokeColor=#9673a6;strokeWidth=2;dashed=1;" parent="1" edge="1">
          <mxGeometry width="50" height="50" relative="1" as="geometry">
            <mxPoint x="520" y="600" as="sourcePoint" />
            <mxPoint x="800" y="600" as="targetPoint" />
          </mxGeometry>
        </mxCell>
        <mxCell id="zah608QgAz4FR2NhL08b-10" value="" style="endArrow=classic;html=1;rounded=0;fillColor=#e1d5e7;strokeColor=#9673a6;strokeWidth=2;" parent="1" edge="1">
          <mxGeometry width="50" height="50" relative="1" as="geometry">
            <mxPoint x="520" y="480" as="sourcePoint" />
            <mxPoint x="800" y="480" as="targetPoint" />
          </mxGeometry>
        </mxCell>
        <mxCell id="zah608QgAz4FR2NhL08b-11" value="" style="endArrow=classic;html=1;rounded=0;fillColor=#e1d5e7;strokeColor=#9673a6;strokeWidth=2;" parent="1" edge="1">
          <mxGeometry width="50" height="50" relative="1" as="geometry">
            <mxPoint x="520" y="520" as="sourcePoint" />
            <mxPoint x="1080" y="520" as="targetPoint" />
          </mxGeometry>
        </mxCell>
        <mxCell id="zah608QgAz4FR2NhL08b-12" value="" style="endArrow=none;html=1;rounded=0;startArrow=classic;startFill=1;endFill=0;fillColor=#e1d5e7;strokeColor=#9673a6;strokeWidth=2;dashed=1;" parent="1" edge="1">
          <mxGeometry width="50" height="50" relative="1" as="geometry">
            <mxPoint x="520" y="760" as="sourcePoint" />
            <mxPoint x="1080" y="760" as="targetPoint" />
          </mxGeometry>
        </mxCell>
        <mxCell id="zah608QgAz4FR2NhL08b-13" value="" style="endArrow=classic;html=1;rounded=0;fillColor=#dae8fc;strokeColor=#6c8ebf;strokeWidth=2;" parent="1" edge="1">
          <mxGeometry width="50" height="50" relative="1" as="geometry">
            <mxPoint x="520" y="640" as="sourcePoint" />
            <mxPoint x="520" y="680" as="targetPoint" />
            <Array as="points">
              <mxPoint x="600" y="640" />
              <mxPoint x="600" y="680" />
            </Array>
          </mxGeometry>
        </mxCell>
        <mxCell id="zah608QgAz4FR2NhL08b-14" value="" style="endArrow=classic;html=1;rounded=0;fillColor=#dae8fc;strokeColor=#6c8ebf;strokeWidth=2;" parent="1" edge="1">
          <mxGeometry width="50" height="50" relative="1" as="geometry">
            <mxPoint x="520" y="800" as="sourcePoint" />
            <mxPoint x="520" y="840" as="targetPoint" />
            <Array as="points">
              <mxPoint x="600" y="800" />
              <mxPoint x="600" y="840" />
            </Array>
          </mxGeometry>
        </mxCell>
        <mxCell id="zah608QgAz4FR2NhL08b-15" value="" style="endArrow=classic;html=1;rounded=0;fillColor=#e1d5e7;strokeColor=#9673a6;strokeWidth=2;" parent="1" edge="1">
          <mxGeometry width="50" height="50" relative="1" as="geometry">
            <mxPoint x="520" y="920" as="sourcePoint" />
            <mxPoint x="1360" y="920" as="targetPoint" />
          </mxGeometry>
        </mxCell>
        <mxCell id="MZYhBqn2FubFB9Swrxx_-1" value="&lt;span style=&quot;font-size: 14px;&quot;&gt;Sync&lt;/span&gt;" style="text;html=1;align=center;verticalAlign=middle;resizable=0;points=[];autosize=1;strokeColor=none;fillColor=none;fontSize=18;" parent="1" vertex="1">
          <mxGeometry x="120" y="200" width="50" height="40" as="geometry" />
        </mxCell>
        <mxCell id="MZYhBqn2FubFB9Swrxx_-3" value="&lt;span style=&quot;font-size: 14px;&quot;&gt;Async&lt;/span&gt;" style="text;html=1;align=center;verticalAlign=middle;resizable=0;points=[];autosize=1;strokeColor=none;fillColor=none;fontSize=18;" parent="1" vertex="1">
          <mxGeometry x="1420" y="400" width="60" height="40" as="geometry" />
        </mxCell>
      </root>
    </mxGraphModel>
  </diagram>
</mxfile>
